<?xml version="1.0" encoding="UTF-8"?>
<svg xmlns="http://www.w3.org/2000/svg" xmlns:xlink="http://www.w3.org/1999/xlink" width="286.5pt" height="342pt" viewBox="0 0 286.5 342" version="1.1">
<g id="surface136">
<path style=" stroke:none;fill-rule:nonzero;fill:rgb(27.058825%,63.137257%,99.607843%);fill-opacity:1;" d="M 242.941406 159.664062 L 277.980469 127.957031 L 90.1875 7.996094 L 55.148438 39.703125 L 64.039062 64.664062 L 62.453125 64.964844 L 27.417969 96.671875 L 36.632812 122.304688 L 35.035156 122.605469 L 0 154.3125 L 17.265625 202.785156 L 62.457031 194.148438 L 115.453125 341.582031 L 250.964844 314.511719 L 198.339844 168.1875 Z M 242.941406 159.664062 "/>
<path style=" stroke:none;fill-rule:nonzero;fill:rgb(56.862748%,78.039217%,99.607843%);fill-opacity:1;" d="M 277.980469 127.957031 L 260.21875 80.460938 L 216.195312 88.703125 L 198.425781 39.292969 L 152.769531 47.914062 L 135.015625 0.417969 L 90.1875 7.996094 L 107.453125 56.46875 L 62.453125 64.964844 L 80.140625 114.164062 L 35.035156 122.605469 L 52.304688 171.074219 L 97.496094 162.441406 L 150.492188 309.871094 L 286 282.804688 L 233.378906 136.480469 Z M 277.980469 127.957031 "/>
<path style=" stroke:none;fill-rule:nonzero;fill:rgb(35.686275%,67.450982%,99.607843%);fill-opacity:1;" d="M 250.964844 314.511719 L 115.453125 341.582031 L 150.492188 309.871094 L 286 282.804688 Z M 250.964844 314.511719 "/>
<path style=" stroke:none;fill-rule:nonzero;fill:rgb(35.686275%,67.450982%,99.607843%);fill-opacity:1;" d="M 62.457031 194.148438 L 17.265625 202.785156 L 52.304688 171.074219 L 97.496094 162.441406 Z M 62.457031 194.148438 "/>
</g>
</svg>
