<?xml version="1.0" encoding="UTF-8"?>
<svg xmlns="http://www.w3.org/2000/svg" xmlns:xlink="http://www.w3.org/1999/xlink" width="342pt" height="299.25pt" viewBox="0 0 342 299.25" version="1.1">
<g id="surface8756">
<path style=" stroke:none;fill-rule:nonzero;fill:rgb(92.54902%,60.000002%,0%);fill-opacity:1;" d="M 0.171875 61.183594 L 15.117188 46.746094 L 98.542969 284.4375 L 83.105469 299 Z M 0.171875 61.183594 "/>
<path style=" stroke:none;fill-rule:nonzero;fill:rgb(92.54902%,60.000002%,0%);fill-opacity:1;" d="M 98.542969 284.4375 L 341.828125 250.175781 L 326.371094 264.464844 L 83.105469 299 Z M 98.542969 284.4375 "/>
<path style=" stroke:none;fill-rule:nonzero;fill:rgb(100%,72.941178%,0%);fill-opacity:1;" d="M 15.117188 46.746094 L 259.484375 11.832031 L 341.828125 250.175781 L 98.542969 284.4375 Z M 15.117188 46.746094 "/>
<path style=" stroke:none;fill-rule:nonzero;fill:rgb(99.215686%,95.294118%,0%);fill-opacity:1;" d="M 40.71875 63.5 L 54.378906 103.40625 L 261.121094 73.925781 L 246.738281 34.015625 Z M 40.71875 63.5 "/>
<path style=" stroke:none;fill-rule:nonzero;fill:rgb(60.784316%,47.450981%,100%);fill-opacity:1;" d="M 64.085938 18.527344 L 85.53125 77.425781 L 103.988281 74.984375 L 83.105469 15.542969 Z M 64.085938 18.527344 "/>
<path style=" stroke:none;fill-rule:nonzero;fill:rgb(52.941179%,30.588236%,100%);fill-opacity:1;" d="M 52.851562 40.671875 L 50.035156 32.886719 L 64.085938 18.527344 L 71.042969 37.632812 Z M 52.851562 40.671875 "/>
<path style=" stroke:none;fill-rule:nonzero;fill:rgb(60.784316%,47.450981%,100%);fill-opacity:1;" d="M 120.371094 11.179688 L 141.8125 70.078125 L 160.269531 67.632812 L 139.390625 8.191406 Z M 120.371094 11.179688 "/>
<path style=" stroke:none;fill-rule:nonzero;fill:rgb(52.941179%,30.588236%,100%);fill-opacity:1;" d="M 109.132812 33.320312 L 106.316406 25.535156 L 120.371094 11.179688 L 127.328125 30.285156 Z M 109.132812 33.320312 "/>
<path style=" stroke:none;fill-rule:nonzero;fill:rgb(60.784316%,47.450981%,100%);fill-opacity:1;" d="M 176.265625 2.984375 L 197.707031 61.882812 L 216.164062 59.441406 L 195.28125 0 Z M 176.265625 2.984375 "/>
<path style=" stroke:none;fill-rule:nonzero;fill:rgb(52.941179%,30.588236%,100%);fill-opacity:1;" d="M 165.027344 25.128906 L 162.210938 17.34375 L 176.265625 2.984375 L 183.21875 22.089844 Z M 165.027344 25.128906 "/>
<path style=" stroke:none;fill-rule:nonzero;fill:rgb(100%,100%,100%);fill-opacity:1;" d="M 61.058594 122.4375 L 267.941406 94.253906 L 317.316406 232.535156 L 109.605469 262.613281 Z M 61.058594 122.4375 "/>
<path style=" stroke:none;fill-rule:nonzero;fill:rgb(60.784316%,47.450981%,100%);fill-opacity:1;" d="M 88.078125 140.03125 L 101.445312 178.953125 L 138.222656 174.625 L 124.6875 134.941406 Z M 88.078125 140.03125 "/>
<path style=" stroke:none;fill-rule:nonzero;fill:rgb(60.784316%,47.450981%,100%);fill-opacity:1;" d="M 165.246094 192.050781 L 178.609375 230.96875 L 215.386719 226.644531 L 201.851562 186.957031 Z M 165.246094 192.050781 "/>
<path style=" stroke:none;fill-rule:nonzero;fill:rgb(60.784316%,47.450981%,100%);fill-opacity:1;" d="M 220.363281 121.433594 L 233.730469 160.351562 L 270.507812 156.027344 L 256.972656 116.34375 Z M 220.363281 121.433594 "/>
</g>
</svg>
