<?xml version="1.0" encoding="UTF-8"?>
<svg xmlns="http://www.w3.org/2000/svg" xmlns:xlink="http://www.w3.org/1999/xlink" width="342pt" height="330.75pt" viewBox="0 0 342 330.75" version="1.1">
<g id="surface64">
<path style=" stroke:none;fill-rule:nonzero;fill:rgb(61.960787%,90.980393%,0%);fill-opacity:1;" d="M 132.394531 2.28125 L 125.132812 31.3125 L 255.441406 29.03125 L 262.703125 0 Z M 132.394531 2.28125 "/>
<path style=" stroke:none;fill-rule:nonzero;fill:rgb(61.960787%,90.980393%,0%);fill-opacity:1;" d="M 65.914062 59.839844 L 91.953125 59.328125 L 85.03125 87.007812 L 59.007812 87.460938 Z M 65.914062 59.839844 "/>
<path style=" stroke:none;fill-rule:nonzero;fill:rgb(61.960787%,90.980393%,0%);fill-opacity:1;" d="M 91.953125 59.328125 L 118.226562 58.925781 L 125.132812 31.3125 L 98.84375 31.773438 Z M 91.953125 59.328125 "/>
<path style=" stroke:none;fill-rule:nonzero;fill:rgb(61.960787%,90.980393%,0%);fill-opacity:1;" d="M 255.441406 29.03125 L 281.464844 28.578125 L 274.558594 56.191406 L 248.535156 56.644531 Z M 255.441406 29.03125 "/>
<path style=" stroke:none;fill-rule:nonzero;fill:rgb(61.960787%,90.980393%,0%);fill-opacity:1;" d="M 300.851562 55.730469 L 274.558594 56.191406 L 267.652344 83.8125 L 293.941406 83.351562 Z M 300.851562 55.730469 "/>
<path style=" stroke:none;fill-rule:nonzero;fill:rgb(61.960787%,90.980393%,0%);fill-opacity:1;" d="M 317.003906 82.949219 L 293.941406 83.351562 L 259.082031 222.75 L 282.144531 222.347656 Z M 317.003906 82.949219 "/>
<path style=" stroke:none;fill-rule:nonzero;fill:rgb(61.960787%,90.980393%,0%);fill-opacity:1;" d="M 232.792969 223.210938 L 259.082031 222.75 L 252.058594 250.84375 L 225.765625 251.304688 Z M 232.792969 223.210938 "/>
<path style=" stroke:none;fill-rule:nonzero;fill:rgb(61.960787%,90.980393%,0%);fill-opacity:1;" d="M 199.746094 251.757812 L 225.765625 251.304688 L 218.742188 279.394531 L 192.71875 279.851562 Z M 199.746094 251.757812 "/>
<path style=" stroke:none;fill-rule:nonzero;fill:rgb(61.960787%,90.980393%,0%);fill-opacity:1;" d="M 62.410156 282.128906 L 192.71875 279.851562 L 185.695312 307.945312 L 55.382812 310.222656 Z M 62.410156 282.128906 "/>
<path style=" stroke:none;fill-rule:nonzero;fill:rgb(61.960787%,90.980393%,0%);fill-opacity:1;" d="M 43.355469 254.472656 L 69.433594 254.039062 L 62.410156 282.128906 L 36.117188 282.589844 Z M 43.355469 254.472656 "/>
<path style=" stroke:none;fill-rule:nonzero;fill:rgb(61.960787%,90.980393%,0%);fill-opacity:1;" d="M 50.167969 226.40625 L 43.355469 254.472656 L 17.121094 254.953125 L 24.300781 226.941406 Z M 50.167969 226.40625 "/>
<path style=" stroke:none;fill-rule:nonzero;fill:rgb(61.960787%,90.980393%,0%);fill-opacity:1;" d="M 0.535156 227.273438 L 24.300781 226.941406 L 59.007812 87.460938 L 35.394531 87.875 Z M 0.535156 227.273438 "/>
<path style=" stroke:none;fill-rule:nonzero;fill:rgb(30.588236%,77.254903%,0%);fill-opacity:1;" d="M 218.742188 279.394531 L 225.765625 251.304688 "/>
<path style=" stroke:none;fill-rule:nonzero;fill:rgb(30.588236%,77.254903%,0%);fill-opacity:1;" d="M 317.003906 82.949219 L 341.464844 103.09375 L 306.601562 243.734375 L 282.144531 222.347656 Z M 317.003906 82.949219 "/>
<path style=" stroke:none;fill-rule:nonzero;fill:rgb(30.588236%,77.254903%,0%);fill-opacity:1;" d="M 300.851562 55.730469 L 322.890625 75.316406 L 320.105469 85.503906 L 317.003906 82.949219 L 293.941406 83.351562 Z M 300.851562 55.730469 "/>
<path style=" stroke:none;fill-rule:nonzero;fill:rgb(30.588236%,77.254903%,0%);fill-opacity:1;" d="M 281.464844 28.578125 L 302.867188 47.65625 L 300.851562 55.730469 L 274.558594 56.191406 Z M 281.464844 28.578125 "/>
<path style=" stroke:none;fill-rule:nonzero;fill:rgb(30.588236%,77.254903%,0%);fill-opacity:1;" d="M 262.703125 0 L 283.976562 18.53125 L 281.464844 28.578125 L 255.441406 29.03125 Z M 262.703125 0 "/>
<path style=" stroke:none;fill-rule:nonzero;fill:rgb(27.450982%,67.843139%,0%);fill-opacity:1;" d="M 259.082031 222.75 L 282.054688 243.734375 L 306.601562 243.734375 L 282.144531 222.347656 Z M 259.082031 222.75 "/>
<path style=" stroke:none;fill-rule:nonzero;fill:rgb(30.588236%,77.254903%,0%);fill-opacity:1;" d="M 259.082031 222.75 L 252.058594 250.84375 L 274.425781 271.542969 L 282.054688 243.734375 Z M 259.082031 222.75 "/>
<path style=" stroke:none;fill-rule:nonzero;fill:rgb(27.450982%,67.843139%,0%);fill-opacity:1;" d="M 225.765625 251.304688 L 248.691406 271.542969 L 274.425781 271.542969 L 252.058594 250.84375 Z M 225.765625 251.304688 "/>
<path style=" stroke:none;fill-rule:nonzero;fill:rgb(30.588236%,77.254903%,0%);fill-opacity:1;" d="M 218.742188 279.394531 L 225.765625 251.304688 L 248.691406 271.542969 L 241.351562 299.917969 Z M 218.742188 279.394531 "/>
<path style=" stroke:none;fill-rule:nonzero;fill:rgb(27.450982%,67.843139%,0%);fill-opacity:1;" d="M 192.71875 279.851562 L 215.394531 299.917969 L 241.351562 299.917969 L 218.742188 279.394531 Z M 192.71875 279.851562 "/>
<path style=" stroke:none;fill-rule:nonzero;fill:rgb(30.588236%,77.254903%,0%);fill-opacity:1;" d="M 185.695312 307.945312 L 192.71875 279.851562 L 215.394531 299.917969 L 207.371094 327.730469 Z M 185.695312 307.945312 "/>
<path style=" stroke:none;fill-rule:nonzero;fill:rgb(27.450982%,67.843139%,0%);fill-opacity:1;" d="M 55.382812 310.222656 L 77.703125 330 L 207.371094 327.730469 L 185.695312 307.945312 Z M 55.382812 310.222656 "/>
<path style=" stroke:none;fill-rule:nonzero;fill:rgb(27.450982%,67.843139%,0%);fill-opacity:1;" d="M 36.117188 282.589844 L 57.480469 301.835938 L 62.410156 282.128906 Z M 36.117188 282.589844 "/>
<path style=" stroke:none;fill-rule:nonzero;fill:rgb(27.450982%,67.843139%,0%);fill-opacity:1;" d="M 17.121094 254.953125 L 38.242188 274.097656 L 43.355469 254.472656 Z M 17.121094 254.953125 "/>
<path style=" stroke:none;fill-rule:nonzero;fill:rgb(27.450982%,67.843139%,0%);fill-opacity:1;" d="M 0.535156 227.273438 L 19.519531 244.375 L 24.300781 226.941406 Z M 0.535156 227.273438 "/>
<path style=" stroke:none;fill-rule:nonzero;fill:rgb(88.235295%,92.941177%,97.647059%);fill-opacity:1;" d="M 125.132812 31.3125 L 255.441406 29.03125 L 248.535156 56.644531 L 274.558594 56.191406 L 267.652344 83.8125 L 293.941406 83.351562 L 259.082031 222.75 L 232.792969 223.210938 L 225.765625 251.304688 L 199.746094 251.757812 L 192.71875 279.851562 L 62.410156 282.128906 L 69.433594 254.039062 L 43.355469 254.472656 L 50.167969 226.40625 L 24.300781 226.941406 L 59.007812 87.460938 L 85.03125 87.007812 L 91.953125 59.328125 L 118.226562 58.925781 Z M 125.132812 31.3125 "/>
<path style=" stroke:none;fill-rule:nonzero;fill:rgb(26.666668%,29.411766%,90.588236%);fill-opacity:1;" d="M 168.925781 58.039062 L 195.929688 57.566406 L 168.175781 168.558594 L 141.171875 169.03125 Z M 168.925781 58.039062 "/>
<path style=" stroke:none;fill-rule:nonzero;fill:rgb(26.666668%,29.411766%,90.588236%);fill-opacity:1;" d="M 188.152344 196.296875 L 195.207031 168.085938 L 168.175781 168.558594 L 161.121094 196.769531 Z M 188.152344 196.296875 "/>
<path style=" stroke:none;fill-rule:nonzero;fill:rgb(26.666668%,29.411766%,90.588236%);fill-opacity:1;" d="M 206.769531 223.664062 L 181.195312 224.113281 L 188.152344 196.296875 L 213.726562 195.847656 Z M 206.769531 223.664062 "/>
</g>
</svg>
