<?xml version="1.0" encoding="UTF-8"?>
<svg xmlns="http://www.w3.org/2000/svg" xmlns:xlink="http://www.w3.org/1999/xlink" width="342pt" height="312pt" viewBox="0 0 342 312" version="1.1">
<g id="surface8679">
<path style=" stroke:none;fill-rule:nonzero;fill:rgb(92.941177%,61.960787%,0%);fill-opacity:1;" d="M 67.425781 284.039062 L 91.480469 312 L 232.210938 309.554688 L 236.484375 281.058594 L 263.875 280.582031 L 268.09375 252.457031 L 296.183594 251.96875 L 304.644531 195.425781 L 333.019531 194.929688 L 341.75 136.730469 L 317.316406 111.316406 L 321.808594 80.976562 L 297.398438 55.402344 L 297.804688 52.964844 L 273.664062 27.582031 L 274.023438 25.113281 L 250.402344 0 L 133.726562 30.40625 L 0.25 172.375 L 24.734375 197.460938 L 19.804688 228.394531 L 43.5625 256.035156 Z M 67.425781 284.039062 "/>
<path style=" stroke:none;fill-rule:nonzero;fill:rgb(92.941177%,55.686277%,0%);fill-opacity:1;" d="M 263.875 280.582031 L 236.484375 281.058594 L 212.429688 253.097656 L 239.820312 252.621094 Z M 263.875 280.582031 "/>
<path style=" stroke:none;fill-rule:nonzero;fill:rgb(92.941177%,55.686277%,0%);fill-opacity:1;" d="M 296.183594 251.96875 L 268.09375 252.457031 L 244.039062 224.496094 L 272.125 224.007812 Z M 296.183594 251.96875 "/>
<path style=" stroke:none;fill-rule:nonzero;fill:rgb(92.941177%,55.686277%,0%);fill-opacity:1;" d="M 333.019531 194.929688 L 304.644531 195.425781 L 280.589844 167.464844 L 308.964844 166.972656 Z M 333.019531 194.929688 "/>
<path style=" stroke:none;fill-rule:nonzero;fill:rgb(92.941177%,55.686277%,0%);fill-opacity:1;" d="M 232.210938 309.554688 L 91.480469 312 L 67.425781 284.039062 L 208.15625 281.59375 Z M 232.210938 309.554688 "/>
<path style=" stroke:none;fill-rule:nonzero;fill:rgb(98.431373%,74.117649%,7.843138%);fill-opacity:1;" d="M 109.671875 2.445312 L 105.464844 30.480469 L 77.324219 30.972656 L 73.074219 59.304688 L 45.101562 59.789062 L 36.636719 116.195312 L 8.601562 116.683594 L 0.25 172.375 L 28.289062 171.851562 L 19.804688 228.394531 L 47.78125 227.910156 L 43.5625 256.035156 L 71.703125 255.546875 L 67.425781 284.039062 L 208.15625 281.59375 L 212.429688 253.097656 L 239.820312 252.621094 L 244.039062 224.496094 L 272.125 224.007812 L 280.589844 167.464844 L 308.964844 166.972656 L 317.316406 111.316406 L 288.9375 111.808594 L 297.398438 55.402344 L 269.332031 55.890625 L 273.585938 27.558594 L 246.195312 28.035156 L 250.402344 0 Z M 109.671875 2.445312 "/>
<path style=" stroke:none;fill-rule:nonzero;fill:rgb(98.431373%,95.294118%,7.843138%);fill-opacity:1;" d="M 105.464844 30.480469 L 101.214844 58.816406 L 73.074219 59.304688 L 64.613281 115.710938 L 36.636719 116.195312 L 28.289062 171.851562 L 56.261719 171.367188 L 47.78125 227.910156 L 75.921875 227.421875 L 71.703125 255.546875 L 212.429688 253.097656 L 216.648438 224.972656 L 244.039062 224.496094 L 252.523438 167.953125 L 280.589844 167.464844 L 288.9375 111.808594 L 260.871094 112.296875 L 269.332031 55.890625 L 241.945312 56.367188 L 246.195312 28.035156 Z M 105.464844 30.480469 "/>
<path style=" stroke:none;fill-rule:nonzero;fill:rgb(98.431373%,74.117649%,7.843138%);fill-opacity:1;" d="M 181.984375 71.699219 L 185.90625 45.574219 L 158.429688 46.050781 L 154.507812 72.179688 L 126.75 72.660156 L 122.5625 100.582031 L 206.941406 99.113281 L 211.128906 71.195312 Z M 181.984375 71.699219 "/>
<path style=" stroke:none;fill-rule:nonzero;fill:rgb(98.431373%,74.117649%,7.843138%);fill-opacity:1;" d="M 118.535156 127.421875 L 114.1875 156.382812 L 198.566406 154.917969 L 202.914062 125.953125 Z M 118.535156 127.421875 "/>
<path style=" stroke:none;fill-rule:nonzero;fill:rgb(98.431373%,74.117649%,7.843138%);fill-opacity:1;" d="M 109.839844 185.367188 L 105.796875 212.328125 L 133.554688 211.847656 L 129.191406 240.914062 L 156.671875 240.433594 L 161.03125 211.367188 L 190.175781 210.863281 L 194.21875 183.898438 Z M 109.839844 185.367188 "/>
<path style=" stroke:none;fill-rule:nonzero;fill:rgb(98.431373%,74.117649%,7.843138%);fill-opacity:1;" d="M 222.886719 183.402344 L 194.21875 183.898438 L 198.566406 154.917969 L 227.234375 154.417969 Z M 222.886719 183.402344 "/>
<path style=" stroke:none;fill-rule:nonzero;fill:rgb(98.431373%,74.117649%,7.843138%);fill-opacity:1;" d="M 118.535156 127.421875 L 90.851562 127.902344 L 94.878906 101.0625 L 122.5625 100.582031 Z M 118.535156 127.421875 "/>
</g>
</svg>
