<?xml version="1.0" encoding="UTF-8"?>
<svg xmlns="http://www.w3.org/2000/svg" xmlns:xlink="http://www.w3.org/1999/xlink" width="342pt" height="304.5pt" viewBox="0 0 342 304.5" version="1.1">
<g id="surface8696">
<path style=" stroke:none;fill-rule:nonzero;fill:rgb(98.039216%,34.117648%,73.333335%);fill-opacity:1;" d="M 0.527344 17.117188 L 4.320312 36.796875 L 23.265625 36.703125 L 42.746094 21.976562 L 39 2.386719 L 20.003906 2.386719 Z M 0.527344 17.117188 "/>
<path style=" stroke:none;fill-rule:nonzero;fill:rgb(90.196079%,22.352941%,63.921571%);fill-opacity:1;" d="M 321.996094 281.027344 L 341.472656 266.300781 L 313.785156 239.796875 L 301.46875 177.957031 L 282.539062 178.25 L 278.363281 157.328125 L 259.265625 157.695312 L 255.078125 136.683594 L 235.625 136.996094 L 231.613281 116.546875 L 212.242188 116.878906 L 208.226562 96.800781 L 189.757812 96.875 L 185.679688 76.390625 L 181.472656 41.183594 L 162.386719 41.378906 L 142.910156 56.105469 L 147.074219 76.957031 L 108.449219 77.519531 L 104.34375 56.503906 L 85.414062 56.699219 C 85.414062 56.699219 65.574219 56.902344 65.574219 56.902344 L 61.476562 36.550781 L 42.746094 21.976562 L 23.265625 36.703125 L 31.300781 78.648438 L 51.109375 78.355469 L 54.773438 97.722656 L 58.898438 119.515625 L 77.84375 119.191406 L 86.128906 161.015625 L 86.097656 161.015625 C 86.097656 161.015625 90.128906 181.21875 90.128906 181.21875 L 109.851562 180.914062 L 113.917969 201.933594 L 152.914062 201.652344 L 155.96875 231.15625 L 141.34375 243.15625 L 145.34375 263.550781 L 164.992188 263.191406 L 169.125 284.25 L 207.308594 283.445312 L 211.402344 304 L 268.769531 303.039062 L 307.261719 302.394531 L 326.738281 287.667969 L 303.085938 281.425781 Z M 282.523438 178.25 L 282.472656 178.25 Z M 282.523438 178.25 "/>
<path style=" stroke:none;fill-rule:nonzero;fill:rgb(98.039216%,34.117648%,73.333335%);fill-opacity:1;" d="M 17.011719 99.265625 L 20.648438 120.175781 L 39.414062 119.851562 L 58.894531 105.125 L 54.90625 84.535156 L 36.492188 84.535156 Z M 17.011719 99.265625 "/>
<path style=" stroke:none;fill-rule:nonzero;fill:rgb(98.039216%,34.117648%,73.333335%);fill-opacity:1;" d="M 39.414062 119.851562 L 43.339844 140.109375 L 62.597656 139.78125 L 82.074219 125.050781 L 78.375 104.789062 L 58.894531 105.125 Z M 39.414062 119.851562 "/>
<path style=" stroke:none;fill-rule:nonzero;fill:rgb(98.039216%,34.117648%,73.333335%);fill-opacity:1;" d="M 62.597656 139.78125 L 66.730469 161.359375 L 86.097656 161.015625 L 105.574219 146.289062 L 101.339844 124.75 L 82.074219 125.050781 Z M 62.597656 139.78125 "/>
<path style=" stroke:none;fill-rule:nonzero;fill:rgb(98.039216%,34.117648%,73.333335%);fill-opacity:1;" d="M 117.980469 222.539062 L 122.109375 243.539062 L 141.34375 243.15625 L 160.824219 228.429688 L 156.757812 207.808594 L 137.460938 207.808594 Z M 117.980469 222.539062 "/>
<path style=" stroke:none;fill-rule:nonzero;fill:rgb(98.039216%,34.117648%,73.333335%);fill-opacity:1;" d="M 119.289062 35.742188 L 138.769531 21.015625 L 134.660156 0 L 116.035156 0 L 96.558594 14.726562 L 100.664062 35.742188 Z M 119.289062 35.742188 "/>
<path style=" stroke:none;fill-rule:nonzero;fill:rgb(94.117647%,27.450982%,68.235296%);fill-opacity:1;" d="M 180.464844 228.058594 L 160.824219 228.429688 L 141.34375 243.15625 L 141.585938 228.8125 L 176.304688 206.855469 Z M 180.464844 228.058594 "/>
<path style=" stroke:none;fill-rule:nonzero;fill:rgb(98.039216%,34.117648%,73.333335%);fill-opacity:1;" d="M 23.800781 22.070312 L 42.746094 21.976562 L 50.78125 63.917969 L 70.589844 63.628906 L 78.375 104.789062 L 97.320312 104.464844 L 109.605469 166.488281 L 129.328125 166.183594 L 133.394531 187.203125 L 172.394531 186.921875 L 180.464844 228.058594 L 161.109375 228.433594 L 164.824219 248.824219 L 184.46875 248.464844 L 188.605469 269.523438 L 226.867188 268.714844 L 237.5 285.4375 L 319.117188 283.484375 L 322.5625 266.699219 L 341.15625 266.304688 L 320.945312 163.230469 L 301.953125 163.523438 L 297.839844 142.601562 L 278.101562 142.980469 L 274.558594 121.953125 L 255.105469 122.265625 L 251.09375 101.820312 L 231.71875 102.152344 L 209.238281 82.144531 L 185.609375 61.949219 L 181.09375 41.773438 L 163.367188 42.039062 L 166.550781 62.226562 L 127.929688 62.792969 L 123.824219 41.777344 L 85.054688 42.175781 L 80.953125 21.820312 L 42.746094 21.976562 L 39 2.386719 L 20.003906 2.386719 Z M 23.800781 22.070312 "/>
<path style=" stroke:none;fill-rule:nonzero;fill:rgb(99.607843%,56.862748%,83.137256%);fill-opacity:1;" d="M 58.894531 105.125 L 40.128906 105.445312 L 36.492188 84.535156 L 54.90625 84.535156 Z M 58.894531 105.125 "/>
<path style=" stroke:none;fill-rule:nonzero;fill:rgb(99.607843%,56.862748%,83.137256%);fill-opacity:1;" d="M 82.074219 125.050781 L 62.816406 125.382812 L 58.894531 105.125 L 78.375 104.789062 Z M 82.074219 125.050781 "/>
<path style=" stroke:none;fill-rule:nonzero;fill:rgb(99.607843%,56.862748%,83.137256%);fill-opacity:1;" d="M 105.574219 146.289062 L 86.207031 146.632812 L 82.074219 125.050781 L 101.339844 124.75 Z M 105.574219 146.289062 "/>
<path style=" stroke:none;fill-rule:nonzero;fill:rgb(99.607843%,56.862748%,83.137256%);fill-opacity:1;" d="M 42.746094 21.976562 L 23.800781 22.070312 L 20.003906 2.386719 L 39 2.386719 Z M 42.746094 21.976562 "/>
<path style=" stroke:none;fill-rule:nonzero;fill:rgb(100%,76.078433%,93.333334%);fill-opacity:1;" d="M 85.054688 42.175781 L 66.152344 42.371094 L 62.191406 21.820312 L 80.953125 21.820312 Z M 85.054688 42.175781 "/>
<path style=" stroke:none;fill-rule:nonzero;fill:rgb(100%,76.078433%,93.333334%);fill-opacity:1;" d="M 70.589844 63.628906 L 50.910156 63.917969 L 46.800781 42.570312 L 66.152344 42.371094 Z M 70.589844 63.628906 "/>
<path style=" stroke:none;fill-rule:nonzero;fill:rgb(99.607843%,56.862748%,83.137256%);fill-opacity:1;" d="M 127.929688 62.792969 L 108.960938 63.070312 L 104.894531 41.972656 L 123.824219 41.777344 Z M 127.929688 62.792969 "/>
<path style=" stroke:none;fill-rule:nonzero;fill:rgb(100%,76.078433%,93.333334%);fill-opacity:1;" d="M 113.027344 82.761719 L 93.046875 82.878906 L 89.179688 63.359375 L 108.960938 63.070312 Z M 113.027344 82.761719 "/>
<path style=" stroke:none;fill-rule:nonzero;fill:rgb(99.607843%,56.862748%,83.137256%);fill-opacity:1;" d="M 185.609375 61.949219 L 166.550781 62.226562 L 162.386719 41.378906 L 181.472656 41.183594 Z M 185.609375 61.949219 "/>
<path style=" stroke:none;fill-rule:nonzero;fill:rgb(100%,76.078433%,93.333334%);fill-opacity:1;" d="M 135.996094 103.796875 L 117.089844 104.125 L 113.027344 82.761719 L 131.84375 82.648438 Z M 135.996094 103.796875 "/>
<path style=" stroke:none;fill-rule:nonzero;fill:rgb(99.607843%,56.862748%,83.137256%);fill-opacity:1;" d="M 129.269531 166.1875 L 109.605469 166.488281 L 105.574219 146.289062 L 125.289062 145.90625 Z M 129.269531 166.1875 "/>
<path style=" stroke:none;fill-rule:nonzero;fill:rgb(99.607843%,56.862748%,83.137256%);fill-opacity:1;" d="M 184.46875 248.464844 L 164.824219 248.824219 L 160.824219 228.429688 L 180.464844 228.058594 Z M 184.46875 248.464844 "/>
<path style=" stroke:none;fill-rule:nonzero;fill:rgb(99.607843%,56.862748%,83.137256%);fill-opacity:1;" d="M 288.246094 288.3125 L 230.878906 289.273438 L 226.785156 268.71875 L 322.5625 266.699219 Z M 288.246094 288.3125 "/>
<path style=" stroke:none;fill-rule:nonzero;fill:rgb(99.607843%,56.862748%,83.137256%);fill-opacity:1;" d="M 226.785156 268.71875 L 188.605469 269.523438 L 184.46875 248.464844 L 222.609375 247.742188 Z M 226.785156 268.71875 "/>
<path style=" stroke:none;fill-rule:nonzero;fill:rgb(99.607843%,56.862748%,83.137256%);fill-opacity:1;" d="M 152.695312 187.023438 L 133.394531 187.203125 L 129.328125 166.183594 L 148.546875 165.890625 Z M 152.695312 187.023438 "/>
<path style=" stroke:none;fill-rule:nonzero;fill:rgb(100%,76.078433%,93.333334%);fill-opacity:1;" d="M 160.824219 228.429688 L 141.585938 228.8125 L 137.460938 207.808594 L 156.757812 207.808594 Z M 160.824219 228.429688 "/>
<path style=" stroke:none;fill-rule:nonzero;fill:rgb(99.607843%,56.862748%,83.137256%);fill-opacity:1;" d="M 199.582031 227.683594 L 180.464844 228.058594 L 176.304688 206.855469 L 195.414062 206.800781 Z M 199.582031 227.683594 "/>
<path style=" stroke:none;fill-rule:nonzero;fill:rgb(100%,76.078433%,93.333334%);fill-opacity:1;" d="M 337.347656 245.59375 L 279.953125 246.667969 L 275.875 226.191406 L 333.261719 225.070312 Z M 337.347656 245.59375 "/>
<path style=" stroke:none;fill-rule:nonzero;fill:rgb(100%,76.078433%,93.333334%);fill-opacity:1;" d="M 341.472656 266.300781 L 322.5625 266.699219 L 318.429688 245.945312 L 337.347656 245.59375 Z M 341.472656 266.300781 "/>
<path style=" stroke:none;fill-rule:nonzero;fill:rgb(99.607843%,56.862748%,83.137256%);fill-opacity:1;" d="M 322.5625 266.699219 L 303.464844 267.101562 L 299.304688 246.304688 L 318.429688 245.945312 Z M 322.5625 266.699219 "/>
<path style=" stroke:none;fill-rule:nonzero;fill:rgb(100%,76.078433%,93.333334%);fill-opacity:1;" d="M 326.738281 287.667969 L 288.246094 288.3125 L 284.105469 267.507812 L 322.5625 266.699219 Z M 326.738281 287.667969 "/>
<path style=" stroke:none;fill-rule:nonzero;fill:rgb(100%,76.078433%,93.333334%);fill-opacity:1;" d="M 303.464844 267.101562 L 284.105469 267.507812 L 279.953125 246.667969 L 299.304688 246.304688 Z M 303.464844 267.101562 "/>
<path style=" stroke:none;fill-rule:nonzero;fill:rgb(99.607843%,56.862748%,83.137256%);fill-opacity:1;" d="M 222.609375 247.742188 L 203.660156 248.097656 L 199.582031 227.683594 L 218.527344 227.289062 Z M 222.609375 247.742188 "/>
<path style=" stroke:none;fill-rule:nonzero;fill:rgb(99.607843%,56.862748%,83.137256%);fill-opacity:1;" d="M 302.015625 163.523438 L 263.507812 164.09375 L 259.375 143.335938 L 297.839844 142.601562 Z M 302.015625 163.523438 "/>
<path style=" stroke:none;fill-rule:nonzero;fill:rgb(99.607843%,56.862748%,83.137256%);fill-opacity:1;" d="M 333.261719 225.070312 L 314.347656 225.4375 L 302.015625 163.523438 L 320.945312 163.230469 Z M 333.261719 225.070312 "/>
<path style=" stroke:none;fill-rule:nonzero;fill:rgb(99.607843%,56.862748%,83.137256%);fill-opacity:1;" d="M 278.742188 142.964844 L 259.375 143.335938 L 255.105469 122.265625 L 274.558594 121.953125 Z M 278.742188 142.964844 "/>
<path style=" stroke:none;fill-rule:nonzero;fill:rgb(99.607843%,56.862748%,83.137256%);fill-opacity:1;" d="M 255.105469 122.265625 L 235.785156 122.578125 L 231.71875 102.152344 L 251.09375 101.820312 Z M 255.105469 122.265625 "/>
<path style=" stroke:none;fill-rule:nonzero;fill:rgb(99.607843%,56.862748%,83.137256%);fill-opacity:1;" d="M 231.71875 102.152344 L 213.285156 102.46875 L 209.238281 82.144531 L 227.703125 82.070312 Z M 231.71875 102.152344 "/>
<path style=" stroke:none;fill-rule:nonzero;fill:rgb(99.607843%,56.862748%,83.137256%);fill-opacity:1;" d="M 209.238281 82.144531 L 189.660156 82.300781 L 185.609375 61.949219 L 205.15625 61.664062 Z M 209.238281 82.144531 "/>
<path style=" stroke:none;fill-rule:nonzero;fill:rgb(99.607843%,56.862748%,83.137256%);fill-opacity:1;" d="M 299.304688 246.304688 L 279.953125 246.667969 L 275.875 226.191406 L 295.25 225.8125 Z M 299.304688 246.304688 "/>
<path style=" stroke:none;fill-rule:nonzero;fill:rgb(99.607843%,56.862748%,83.137256%);fill-opacity:1;" d="M 97.320312 104.464844 L 78.375 104.789062 L 74.25 82.992188 L 93.046875 82.878906 Z M 97.320312 104.464844 "/>
<path style=" stroke:none;fill-rule:nonzero;fill:rgb(99.607843%,56.862748%,83.137256%);fill-opacity:1;" d="M 116.035156 0 L 120.140625 21.015625 L 138.769531 21.015625 L 134.660156 0 Z M 116.035156 0 "/>
<path style=" stroke:none;fill-rule:nonzero;fill:rgb(94.117647%,27.450982%,68.235296%);fill-opacity:1;" d="M 141.34375 243.15625 L 122.109375 243.539062 L 141.585938 228.8125 L 160.824219 228.429688 Z M 141.34375 243.15625 "/>
<path style=" stroke:none;fill-rule:nonzero;fill:rgb(94.117647%,27.450982%,68.235296%);fill-opacity:1;" d="M 86.097656 161.015625 L 66.730469 161.359375 L 86.207031 146.632812 L 105.574219 146.289062 Z M 86.097656 161.015625 "/>
<path style=" stroke:none;fill-rule:nonzero;fill:rgb(94.117647%,27.450982%,68.235296%);fill-opacity:1;" d="M 109.851562 180.914062 L 90.128906 181.214844 L 109.605469 166.488281 L 129.328125 166.183594 Z M 109.851562 180.914062 "/>
<path style=" stroke:none;fill-rule:nonzero;fill:rgb(94.117647%,27.450982%,68.235296%);fill-opacity:1;" d="M 152.914062 201.648438 L 113.917969 201.933594 L 133.394531 187.203125 L 172.394531 186.921875 Z M 152.914062 201.648438 "/>
<path style=" stroke:none;fill-rule:nonzero;fill:rgb(94.117647%,27.450982%,68.235296%);fill-opacity:1;" d="M 62.597656 139.78125 L 43.339844 140.109375 L 62.816406 125.382812 L 82.074219 125.050781 Z M 62.597656 139.78125 "/>
<path style=" stroke:none;fill-rule:nonzero;fill:rgb(94.117647%,27.450982%,68.235296%);fill-opacity:1;" d="M 164.992188 263.191406 L 145.34375 263.550781 L 164.824219 248.824219 L 184.46875 248.464844 Z M 164.992188 263.191406 "/>
<path style=" stroke:none;fill-rule:nonzero;fill:rgb(94.117647%,27.450982%,68.235296%);fill-opacity:1;" d="M 207.308594 283.445312 L 169.125 284.25 L 188.605469 269.523438 L 226.867188 268.714844 Z M 207.308594 283.445312 "/>
<path style=" stroke:none;fill-rule:nonzero;fill:rgb(94.117647%,27.450982%,68.235296%);fill-opacity:1;" d="M 307.261719 302.394531 L 211.402344 304 L 230.878906 289.273438 L 326.738281 287.667969 Z M 307.261719 302.394531 "/>
<path style=" stroke:none;fill-rule:nonzero;fill:rgb(94.117647%,27.450982%,68.235296%);fill-opacity:1;" d="M 166.550781 62.226562 L 144.199219 62.554688 L 142.910156 56.105469 L 162.386719 41.378906 Z M 166.550781 62.226562 "/>
<path style=" stroke:none;fill-rule:nonzero;fill:rgb(94.117647%,27.450982%,68.235296%);fill-opacity:1;" d="M 51.109375 78.355469 L 31.300781 78.644531 L 50.78125 63.917969 L 70.589844 63.628906 Z M 51.109375 78.355469 "/>
<path style=" stroke:none;fill-rule:nonzero;fill:rgb(94.117647%,27.450982%,68.235296%);fill-opacity:1;" d="M 78.375 104.789062 L 58.894531 105.125 L 57.253906 94.992188 L 74.25 82.992188 Z M 78.375 104.789062 "/>
<path style=" stroke:none;fill-rule:nonzero;fill:rgb(94.117647%,27.450982%,68.235296%);fill-opacity:1;" d="M 39.414062 119.851562 L 20.648438 120.175781 L 40.128906 105.445312 L 58.894531 105.125 Z M 39.414062 119.851562 "/>
<path style=" stroke:none;fill-rule:nonzero;fill:rgb(94.117647%,27.450982%,68.235296%);fill-opacity:1;" d="M 23.265625 36.703125 L 4.320312 36.796875 L 23.800781 22.070312 L 42.746094 21.976562 Z M 23.265625 36.703125 "/>
<path style=" stroke:none;fill-rule:nonzero;fill:rgb(94.117647%,27.450982%,68.235296%);fill-opacity:1;" d="M 119.289062 35.742188 L 100.664062 35.742188 L 120.140625 21.015625 L 138.769531 21.015625 Z M 119.289062 35.742188 "/>
</g>
</svg>
