<?xml version="1.0" encoding="UTF-8"?>
<svg xmlns="http://www.w3.org/2000/svg" xmlns:xlink="http://www.w3.org/1999/xlink" width="342pt" height="284.25pt" viewBox="0 0 342 284.25" version="1.1">
<g id="surface8798">
<path style=" stroke:none;fill-rule:nonzero;fill:rgb(98.431373%,74.117649%,7.843138%);fill-opacity:1;" d="M 312.917969 28.375 L 313.015625 85.109375 L 284.515625 85.132812 L 284.515625 28.402344 L 312.914062 28.375 L 312.957031 0.0117188 L 256.125 0.0117188 L 256.125 28.378906 L 85.871094 28.363281 L 85.871094 0 L 29.042969 0 L 29.042969 28.386719 L 57.429688 28.386719 L 57.335938 85.09375 L 28.988281 85.09375 L 28.988281 28.363281 L 0.597656 28.363281 L 0.597656 85.117188 L 28.949219 85.117188 L 28.949219 113.484375 L 57.4375 113.582031 L 57.4375 141.96875 L 85.828125 141.96875 L 85.828125 141.902344 L 85.828125 170.347656 L 142.589844 170.335938 L 142.597656 227.089844 L 114.15625 227.101562 L 114.203125 255.480469 L 85.792969 255.484375 L 85.792969 284 L 256.171875 283.875 L 256.171875 255.484375 L 227.84375 255.480469 L 227.84375 227.089844 L 199.457031 227.089844 L 199.410156 170.351562 L 256.171875 170.359375 L 256.171875 141.949219 L 256.171875 141.980469 L 284.5625 141.980469 L 284.664062 113.496094 L 313.050781 113.496094 L 313.050781 85.132812 L 341.402344 85.132812 L 341.402344 28.378906 L 312.914062 28.375 Z M 199.457031 255.480469 L 199.460938 255.480469 L 199.410156 255.5 L 199.347656 255.589844 L 199.347656 255.492188 L 199.402344 255.492188 L 199.402344 255.417969 Z M 199.457031 255.480469 "/>
<path style=" stroke:none;fill-rule:nonzero;fill:rgb(98.431373%,95.294118%,7.843138%);fill-opacity:1;" d="M 187.339844 85.046875 L 158.953125 85.046875 L 158.953125 56.65625 L 187.339844 56.65625 Z M 187.339844 85.046875 "/>
<path style=" stroke:none;fill-rule:nonzero;fill:rgb(98.431373%,95.294118%,7.843138%);fill-opacity:1;" d="M 187.339844 113.421875 L 172.421875 118.035156 L 158.953125 113.421875 L 158.953125 85.035156 L 187.339844 85.035156 Z M 187.339844 113.421875 "/>
<path style=" stroke:none;fill-rule:nonzero;fill:rgb(98.431373%,95.294118%,7.843138%);fill-opacity:1;" d="M 158.953125 113.507812 L 187.339844 113.507812 L 187.339844 141.898438 L 158.953125 141.898438 Z M 158.953125 113.507812 "/>
<path style=" stroke:none;fill-rule:nonzero;fill:rgb(98.431373%,95.294118%,7.843138%);fill-opacity:1;" d="M 130.886719 70.863281 L 159.273438 70.863281 L 159.273438 99.253906 L 130.886719 99.253906 Z M 130.886719 70.863281 "/>
<path style=" stroke:none;fill-rule:nonzero;fill:rgb(92.941177%,61.960787%,0%);fill-opacity:1;" d="M 142.613281 198.773438 L 199.433594 198.773438 L 199.410156 170.351562 L 142.589844 170.339844 Z M 142.613281 198.773438 "/>
<path style=" stroke:none;fill-rule:nonzero;fill:rgb(92.941177%,61.960787%,0%);fill-opacity:1;" d="M 86 28.386719 L 57.613281 28.386719 L 57.613281 0 L 86 0 Z M 86 28.386719 "/>
<path style=" stroke:none;fill-rule:nonzero;fill:rgb(92.941177%,61.960787%,0%);fill-opacity:1;" d="M 313.019531 113.421875 L 284.628906 113.421875 L 284.628906 85.035156 L 313.019531 85.035156 Z M 313.019531 113.421875 "/>
</g>
</svg>
