<?xml version="1.0" encoding="UTF-8"?>
<svg xmlns="http://www.w3.org/2000/svg" xmlns:xlink="http://www.w3.org/1999/xlink" width="297.75pt" height="342pt" viewBox="0 0 297.75 342" version="1.1">
<g id="surface145">
<path style=" stroke:none;fill-rule:nonzero;fill:rgb(46.666667%,61.56863%,85.490197%);fill-opacity:1;" d="M 224.8125 12.484375 L 0 219.621094 L 23.0625 244.613281 L 19.070312 256.011719 L 43.574219 281.742188 L 38.808594 291.992188 L 178.054688 341.671875 L 187.984375 311.984375 L 217.292969 318.210938 L 227.386719 288.035156 L 257.269531 294.382812 L 297 175.691406 L 273.9375 150.703125 L 273.363281 150.582031 L 287.007812 109.78125 L 263.976562 84.804688 L 267.769531 73.464844 L 244.707031 48.476562 L 237.953125 67.128906 L 247.871094 37.472656 Z M 224.8125 12.484375 "/>
<path style=" stroke:none;fill-rule:nonzero;fill:rgb(30.19608%,52.549022%,76.862746%);fill-opacity:1;" d="M 257.269531 294.382812 L 227.386719 288.035156 L 204.324219 263.042969 L 234.210938 269.394531 Z M 257.269531 294.382812 "/>
<path style=" stroke:none;fill-rule:nonzero;fill:rgb(30.19608%,52.549022%,76.862746%);fill-opacity:1;" d="M 217.292969 318.210938 L 187.984375 311.984375 L 164.925781 286.996094 L 194.230469 293.222656 Z M 217.292969 318.210938 "/>
<path style=" stroke:none;fill-rule:nonzero;fill:rgb(30.19608%,52.549022%,76.862746%);fill-opacity:1;" d="M 178.054688 341.671875 L 61.871094 316.980469 L 38.808594 291.992188 L 154.996094 316.683594 Z M 178.054688 341.671875 "/>
<path style=" stroke:none;fill-rule:nonzero;fill:rgb(56.862748%,78.039217%,99.607843%);fill-opacity:1;" d="M 167.59375 0.328125 L 157.675781 29.988281 L 128.554688 23.800781 L 118.453125 53.886719 L 88.789062 47.582031 L 68.867188 107.136719 L 39.699219 100.941406 L 0 219.621094 L 29.164062 225.832031 L 19.070312 256.011719 L 48.738281 262.3125 L 38.808594 291.992188 L 154.996094 316.683594 L 164.925781 286.996094 L 194.230469 293.222656 L 204.324219 263.042969 L 234.210938 269.394531 L 273.9375 150.703125 L 244.027344 144.351562 L 263.949219 84.792969 L 234.640625 78.570312 L 244.707031 48.476562 L 214.890625 42.140625 L 224.8125 12.484375 Z M 167.59375 0.328125 "/>
<path style=" stroke:none;fill-rule:nonzero;fill:rgb(89.019608%,92.941177%,97.254902%);fill-opacity:1;" d="M 127.6875 119.636719 L 98.535156 113.441406 L 108.542969 83.523438 L 137.695312 89.71875 Z M 127.6875 119.636719 "/>
<path style=" stroke:none;fill-rule:nonzero;fill:rgb(98.039216%,34.117648%,73.333335%);fill-opacity:1;" d="M 117.734375 149.394531 L 88.578125 143.199219 L 98.535156 113.441406 L 127.6875 119.636719 Z M 117.734375 149.394531 "/>
<path style=" stroke:none;fill-rule:nonzero;fill:rgb(89.019608%,92.941177%,97.254902%);fill-opacity:1;" d="M 88.578125 143.199219 L 58.914062 136.898438 L 68.867188 107.136719 L 98.535156 113.441406 Z M 88.578125 143.199219 "/>
<path style=" stroke:none;fill-rule:nonzero;fill:rgb(99.607843%,56.862748%,83.137256%);fill-opacity:1;" d="M 107.835938 178.988281 L 78.679688 172.796875 L 88.578125 143.199219 L 117.734375 149.394531 Z M 107.835938 178.988281 "/>
<path style=" stroke:none;fill-rule:nonzero;fill:rgb(98.039216%,34.117648%,73.333335%);fill-opacity:1;" d="M 78.679688 172.796875 L 49.011719 166.492188 L 58.914062 136.898438 L 88.578125 143.199219 Z M 78.679688 172.796875 "/>
<path style=" stroke:none;fill-rule:nonzero;fill:rgb(98.039216%,34.117648%,73.333335%);fill-opacity:1;" d="M 39.175781 195.90625 L 10.003906 189.707031 L 19.84375 160.296875 L 49.011719 166.492188 Z M 39.175781 195.90625 "/>
<path style=" stroke:none;fill-rule:nonzero;fill:rgb(98.039216%,34.117648%,73.333335%);fill-opacity:1;" d="M 97.996094 208.402344 L 68.84375 202.207031 L 78.679688 172.796875 L 107.835938 178.988281 Z M 97.996094 208.402344 "/>
<path style=" stroke:none;fill-rule:nonzero;fill:rgb(98.039216%,34.117648%,73.333335%);fill-opacity:1;" d="M 116.691406 244.425781 L 87.988281 238.328125 L 97.996094 208.402344 L 126.699219 214.5 Z M 116.691406 244.425781 "/>
<path style=" stroke:none;fill-rule:nonzero;fill:rgb(99.607843%,56.862748%,83.137256%);fill-opacity:1;" d="M 126.699219 214.5 L 97.996094 208.402344 L 107.835938 178.988281 L 136.539062 185.089844 Z M 126.699219 214.5 "/>
<path style=" stroke:none;fill-rule:nonzero;fill:rgb(98.039216%,34.117648%,73.333335%);fill-opacity:1;" d="M 155.210938 220.558594 L 126.699219 214.5 L 136.539062 185.089844 L 165.050781 191.144531 Z M 155.210938 220.558594 "/>
<path style=" stroke:none;fill-rule:nonzero;fill:rgb(98.039216%,34.117648%,73.333335%);fill-opacity:1;" d="M 136.539062 185.089844 L 107.835938 178.988281 L 117.734375 149.394531 L 146.4375 155.492188 Z M 136.539062 185.089844 "/>
<path style=" stroke:none;fill-rule:nonzero;fill:rgb(98.039216%,34.117648%,73.333335%);fill-opacity:1;" d="M 174.949219 161.550781 L 146.4375 155.492188 L 156.390625 125.734375 L 184.90625 131.789062 Z M 174.949219 161.550781 "/>
<path style=" stroke:none;fill-rule:nonzero;fill:rgb(99.607843%,56.862748%,83.137256%);fill-opacity:1;" d="M 165.050781 191.144531 L 136.539062 185.089844 L 146.4375 155.492188 L 174.949219 161.550781 Z M 165.050781 191.144531 "/>
<path style=" stroke:none;fill-rule:nonzero;fill:rgb(98.039216%,34.117648%,73.333335%);fill-opacity:1;" d="M 194.867188 197.480469 L 165.050781 191.144531 L 174.949219 161.550781 L 204.765625 167.882812 Z M 194.867188 197.480469 "/>
<path style=" stroke:none;fill-rule:nonzero;fill:rgb(98.039216%,34.117648%,73.333335%);fill-opacity:1;" d="M 214.335938 233.117188 L 185.027344 226.890625 L 194.867188 197.480469 L 224.175781 203.707031 Z M 214.335938 233.117188 "/>
<path style=" stroke:none;fill-rule:nonzero;fill:rgb(98.039216%,34.117648%,73.333335%);fill-opacity:1;" d="M 254.132812 210.070312 L 224.175781 203.707031 L 234.074219 174.109375 L 263.984375 180.464844 Z M 254.132812 210.070312 "/>
</g>
</svg>
