<?xml version="1.0" encoding="UTF-8"?>
<svg xmlns="http://www.w3.org/2000/svg" xmlns:xlink="http://www.w3.org/1999/xlink" width="342pt" height="312.75pt" viewBox="0 0 342 312.75" version="1.1">
<g id="surface313">
<path style=" stroke:none;fill-rule:nonzero;fill:rgb(49.803922%,31.764707%,100%);fill-opacity:1;" d="M 225.917969 5.136719 L 200.671875 19.5 L 200.671875 33.78125 L 197.832031 33.675781 L 172.582031 47.902344 L 172.582031 77.53125 L 114.828125 16.222656 L 82.972656 0 L 57.722656 14.359375 L 57.722656 31.449219 L 54.886719 28.460938 L 29.636719 42.820312 L 29.636719 57.5 L 26.015625 57.378906 L 0.765625 71.738281 L 0.765625 159.472656 L 29.636719 160.570312 L 29.636719 189.378906 L 56.527344 190.335938 L 56.527344 220.050781 L 86.011719 221.125 L 86.011719 250.3125 L 114.828125 251.363281 L 114.828125 281.132812 L 143.644531 282.183594 L 143.644531 312 L 172.582031 312 L 197.832031 297.640625 L 192.894531 283.980469 L 200.671875 284.261719 L 225.921875 269.902344 L 223.371094 255.320312 L 228.507812 255.507812 L 253.757812 241.148438 L 252.140625 227.179688 L 257.058594 227.359375 L 283 213.027344 L 278.777344 198.253906 L 286.6875 198.492188 L 311.839844 184.132812 L 310.253906 170.75 L 315.984375 170.957031 L 341.234375 156.597656 Z M 225.917969 5.136719 "/>
<path style=" stroke:none;fill-rule:nonzero;fill:rgb(99.607843%,56.862748%,83.137256%);fill-opacity:1;" d="M 311.835938 67.015625 L 307.589844 43.753906 L 283.027344 36.785156 L 281.417969 10.425781 L 228.796875 7.054688 L 225.917969 34.699219 L 201.28125 37.425781 L 197.832031 63.171875 L 168.894531 62.195312 L 166.945312 33.675781 L 140.078125 31.570312 L 136.816406 4.179688 L 85.082031 2.664062 L 82.972656 29.484375 L 57.722656 31.449219 L 54.886719 58.351562 L 28.992188 60.648438 L 29.371094 141.578125 L 54.917969 146.164062 L 57.609375 171.320312 L 82.972656 176.015625 L 85.652344 202.960938 L 111.261719 206.765625 L 112.941406 233.847656 L 140.078125 237.003906 L 141.742188 265.113281 L 168.894531 267.824219 L 171 296.382812 L 195.410156 295.207031 L 197.832031 268.878906 L 223.984375 267.824219 L 225.921875 240.132812 L 252.027344 239.109375 L 253.757812 211.960938 L 280.074219 209.96875 L 283 183.109375 L 309.257812 179.839844 L 311.839844 155.527344 L 339.621094 154.480469 L 339.972656 69.929688 Z M 311.835938 67.015625 "/>
<path style=" stroke:none;fill-rule:nonzero;fill:rgb(58.823532%,47.843137%,99.607843%);fill-opacity:1;" d="M 140.078125 31.570312 L 82.972656 29.484375 L 82.972656 0 L 140.078125 1.859375 Z M 140.078125 31.570312 "/>
<path style=" stroke:none;fill-rule:nonzero;fill:rgb(58.823532%,47.843137%,99.607843%);fill-opacity:1;" d="M 82.972656 59.296875 L 54.886719 58.351562 L 54.886719 28.460938 L 82.972656 29.484375 Z M 82.972656 59.296875 "/>
<path style=" stroke:none;fill-rule:nonzero;fill:rgb(58.823532%,47.843137%,99.607843%);fill-opacity:1;" d="M 168.894531 62.195312 L 140.078125 61.222656 L 140.078125 31.570312 L 168.894531 32.625 Z M 168.894531 62.195312 "/>
<path style=" stroke:none;fill-rule:nonzero;fill:rgb(58.823532%,47.843137%,99.607843%);fill-opacity:1;" d="M 197.832031 92.824219 L 168.894531 91.847656 L 168.894531 62.195312 L 197.832031 63.171875 Z M 197.832031 92.824219 "/>
<path style=" stroke:none;fill-rule:nonzero;fill:rgb(58.823532%,47.843137%,99.607843%);fill-opacity:1;" d="M 54.886719 146.164062 L 26.015625 145.113281 L 26.015625 57.378906 L 54.886719 58.351562 Z M 54.886719 146.164062 "/>
<path style=" stroke:none;fill-rule:nonzero;fill:rgb(72.156864%,58.039218%,100%);fill-opacity:1;" d="M 82.972656 176.015625 L 54.886719 175.019531 L 54.886719 146.164062 L 82.953125 147.136719 Z M 82.972656 176.015625 "/>
<path style=" stroke:none;fill-rule:nonzero;fill:rgb(58.823532%,47.843137%,99.607843%);fill-opacity:1;" d="M 111.25 206.765625 L 82.972656 205.734375 L 82.972656 176.015625 L 111.25 177.019531 Z M 111.25 206.765625 "/>
<path style=" stroke:none;fill-rule:nonzero;fill:rgb(58.823532%,47.843137%,99.607843%);fill-opacity:1;" d="M 140.078125 237.003906 L 111.25 235.960938 L 111.25 206.765625 L 140.078125 207.816406 Z M 140.078125 237.003906 "/>
<path style=" stroke:none;fill-rule:nonzero;fill:rgb(58.823532%,47.843137%,99.607843%);fill-opacity:1;" d="M 168.894531 267.824219 L 140.078125 266.773438 L 140.078125 237.003906 L 168.894531 238.054688 Z M 168.894531 267.824219 "/>
<path style=" stroke:none;fill-rule:nonzero;fill:rgb(58.823532%,47.843137%,99.607843%);fill-opacity:1;" d="M 197.832031 297.640625 L 168.894531 297.640625 L 168.894531 267.824219 L 197.832031 268.878906 Z M 197.832031 297.640625 "/>
<path style=" stroke:none;fill-rule:nonzero;fill:rgb(58.823532%,47.843137%,99.607843%);fill-opacity:1;" d="M 225.917969 269.902344 L 197.832031 268.878906 L 197.832031 239.109375 L 225.921875 240.132812 Z M 225.917969 269.902344 "/>
<path style=" stroke:none;fill-rule:nonzero;fill:rgb(58.823532%,47.843137%,99.607843%);fill-opacity:1;" d="M 253.757812 241.148438 L 225.921875 240.132812 L 225.921875 210.953125 L 253.757812 211.960938 Z M 253.757812 241.148438 "/>
<path style=" stroke:none;fill-rule:nonzero;fill:rgb(58.823532%,47.843137%,99.607843%);fill-opacity:1;" d="M 283 213.027344 L 253.757812 211.960938 L 253.757812 182.070312 L 283 183.109375 Z M 283 213.027344 "/>
<path style=" stroke:none;fill-rule:nonzero;fill:rgb(58.823532%,47.843137%,99.607843%);fill-opacity:1;" d="M 311.839844 184.132812 L 283 183.109375 L 283 154.480469 L 311.839844 155.527344 Z M 311.839844 184.132812 "/>
<path style=" stroke:none;fill-rule:nonzero;fill:rgb(58.823532%,47.843137%,99.607843%);fill-opacity:1;" d="M 341.234375 156.597656 L 311.839844 155.527344 L 311.839844 67.015625 L 341.234375 68.003906 Z M 341.234375 156.597656 "/>
<path style=" stroke:none;fill-rule:nonzero;fill:rgb(49.803922%,31.764707%,100%);fill-opacity:1;" d="M 311.839844 67.015625 L 283 66.042969 L 283 36.78125 L 311.832031 37.835938 Z M 311.839844 67.015625 "/>
<path style=" stroke:none;fill-rule:nonzero;fill:rgb(58.823532%,47.843137%,99.607843%);fill-opacity:1;" d="M 283.027344 36.78125 L 225.921875 34.699219 L 225.914062 5.136719 L 283.027344 7 Z M 283.027344 36.78125 "/>
<path style=" stroke:none;fill-rule:nonzero;fill:rgb(58.823532%,47.843137%,99.607843%);fill-opacity:1;" d="M 225.921875 64.117188 L 197.832031 63.332031 L 197.832031 33.675781 L 225.921875 34.699219 Z M 225.921875 64.117188 "/>
<path style=" stroke:none;fill-rule:nonzero;fill:rgb(100%,100%,100%);fill-opacity:1;" d="M 283 124.484375 L 253.757812 123.667969 L 253.757812 94.011719 L 283 95.078125 Z M 283 124.484375 "/>
</g>
</svg>
