<?xml version="1.0" encoding="UTF-8"?>
<svg xmlns="http://www.w3.org/2000/svg" xmlns:xlink="http://www.w3.org/1999/xlink" width="243pt" height="342pt" viewBox="0 0 243 342" version="1.1">
<g id="surface8775">
<path style=" stroke:none;fill-rule:nonzero;fill:rgb(75.686276%,80.784315%,88.235295%);fill-opacity:1;" d="M 243 313.160156 L 15.0625 341.539062 L 2.332031 319.738281 L 226.675781 111.835938 L 239.40625 133.636719 Z M 243 313.160156 "/>
<path style=" stroke:none;fill-rule:nonzero;fill:rgb(63.137257%,70.19608%,80.000001%);fill-opacity:1;" d="M 230.269531 291.359375 L 2.332031 319.738281 L 0 139.417969 L 226.675781 111.835938 Z M 230.269531 291.359375 "/>
<path style=" stroke:none;fill-rule:nonzero;fill:rgb(63.137257%,70.19608%,80.000001%);fill-opacity:1;" d="M 128.273438 64.40625 L 128.214844 34.335938 L 94.84375 38.484375 L 95.230469 68.519531 L 63.855469 72.53125 L 62.832031 12.34375 L 161.03125 0.460938 L 161.03125 60.113281 Z M 128.273438 64.40625 "/>
<path style=" stroke:none;fill-rule:nonzero;fill:rgb(63.137257%,70.19608%,80.000001%);fill-opacity:1;" d="M 63.855469 131.648438 L 47.589844 142.609375 L 31.511719 135.574219 L 31.511719 76.660156 L 63.855469 72.53125 Z M 63.855469 131.648438 "/>
<path style=" stroke:none;fill-rule:nonzero;fill:rgb(75.686276%,80.784315%,88.235295%);fill-opacity:1;" d="M 108.828125 90.398438 L 95.144531 68.382812 L 94.84375 38.484375 L 108.597656 61.160156 Z M 108.828125 90.398438 "/>
<path style=" stroke:none;fill-rule:nonzero;fill:rgb(75.686276%,80.784315%,88.235295%);fill-opacity:1;" d="M 77.097656 130.039062 L 63.855469 131.648438 L 63.855469 71.976562 L 77.097656 94.453125 Z M 77.097656 130.039062 "/>
<path style=" stroke:none;fill-rule:nonzero;fill:rgb(43.529412%,51.372552%,63.137257%);fill-opacity:1;" d="M 108.828125 90.398438 L 77.097656 94.453125 L 63.855469 72.53125 L 95.230469 68.519531 Z M 108.828125 90.398438 "/>
<path style=" stroke:none;fill-rule:nonzero;fill:rgb(63.137257%,70.19608%,80.000001%);fill-opacity:1;" d="M 160.980469 30.003906 L 128.214844 34.335938 L 128.214844 4.4375 L 161.03125 0.460938 Z M 160.980469 30.003906 "/>
<path style=" stroke:none;fill-rule:nonzero;fill:rgb(43.529412%,51.372552%,63.137257%);fill-opacity:1;" d="M 128.214844 58.648438 L 108.597656 61.160156 L 94.84375 38.484375 L 128.214844 34.335938 Z M 128.214844 58.648438 "/>
<path style=" stroke:none;fill-rule:nonzero;fill:rgb(75.686276%,80.784315%,88.235295%);fill-opacity:1;" d="M 172.988281 61.910156 L 161.019531 60.128906 L 161.03125 0.460938 L 172.988281 22.4375 Z M 172.988281 61.910156 "/>
<path style=" stroke:none;fill-rule:nonzero;fill:rgb(43.529412%,51.372552%,63.137257%);fill-opacity:1;" d="M 170.261719 82.546875 L 140.984375 86.289062 L 128.214844 64.308594 L 161.03125 60.113281 Z M 170.261719 82.546875 "/>
<path style=" stroke:none;fill-rule:nonzero;fill:rgb(63.137257%,70.19608%,80.000001%);fill-opacity:1;" d="M 194.746094 115.746094 L 180.039062 131.042969 L 162.121094 119.691406 L 161.03125 60.113281 L 194.746094 55.804688 Z M 194.746094 115.746094 "/>
<path style=" stroke:none;fill-rule:nonzero;fill:rgb(75.686276%,80.784315%,88.235295%);fill-opacity:1;" d="M 206.878906 114.375 L 194.746094 115.746094 L 194.746094 55.804688 L 206.878906 78.808594 Z M 206.878906 114.375 "/>
<path style=" stroke:none;fill-rule:nonzero;fill:rgb(43.529412%,51.372552%,63.137257%);fill-opacity:1;" d="M 146.4375 151.492188 L 81.304688 159.449219 L 81.304688 219.460938 L 98.777344 217.292969 L 99.738281 277.414062 L 132.269531 273.382812 L 131.246094 213.257812 L 146.4375 211.371094 Z M 146.4375 151.492188 "/>
<path style=" stroke:none;fill-rule:nonzero;fill:rgb(43.529412%,51.372552%,63.137257%);fill-opacity:1;" d="M 34.570312 285.496094 L 1.941406 289.542969 L 1.550781 259.40625 L 34.152344 255.378906 Z M 34.570312 285.496094 "/>
<path style=" stroke:none;fill-rule:nonzero;fill:rgb(75.686276%,80.784315%,88.235295%);fill-opacity:1;" d="M 195.402344 145.804688 L 162.9375 149.847656 L 162.367188 119.769531 L 194.800781 115.746094 Z M 195.402344 145.804688 "/>
<path style=" stroke:none;fill-rule:nonzero;fill:rgb(43.529412%,51.372552%,63.137257%);fill-opacity:1;" d="M 243 313.160156 L 15.0625 341.539062 L 2.332031 319.738281 L 230.269531 291.359375 Z M 243 313.160156 "/>
<path style=" stroke:none;fill-rule:nonzero;fill:rgb(43.529412%,51.372552%,63.137257%);fill-opacity:1;" d="M 63.855469 131.648438 L 31.511719 135.574219 L 31.511719 105.410156 L 63.855469 101.398438 Z M 63.855469 131.648438 "/>
</g>
</svg>
