<?xml version="1.0" encoding="UTF-8"?>
<svg xmlns="http://www.w3.org/2000/svg" xmlns:xlink="http://www.w3.org/1999/xlink" width="221.25pt" height="342pt" viewBox="0 0 221.25 342" version="1.1">
<g id="surface8871">
<path style=" stroke:none;fill-rule:nonzero;fill:rgb(87.843138%,58.431375%,0%);fill-opacity:1;" d="M 179 236.101562 L 157.085938 248.707031 L 151.578125 236.265625 Z M 179 236.101562 "/>
<path style=" stroke:none;fill-rule:nonzero;fill:rgb(87.843138%,58.431375%,0%);fill-opacity:1;" d="M 197.726562 206.816406 L 175.238281 219.136719 L 165.59375 204.816406 Z M 197.726562 206.816406 "/>
<path style=" stroke:none;fill-rule:nonzero;fill:rgb(87.843138%,58.431375%,0%);fill-opacity:1;" d="M 188.015625 163.023438 L 181.707031 156.027344 L 181.707031 147.820312 L 210.21875 151.179688 Z M 188.015625 163.023438 "/>
<path style=" stroke:none;fill-rule:nonzero;fill:rgb(92.941177%,61.960787%,0%);fill-opacity:1;" d="M 32.460938 23.613281 L 36.09375 40.003906 L 13.558594 53.472656 L 22.910156 95.652344 L 0 109.339844 L 16.507812 188.511719 L 42.714844 184.949219 L 54.085938 236.234375 L 78.980469 233.390625 L 84.734375 259.347656 L 107.179688 256.867188 L 119.019531 310.261719 L 94.328125 302.617188 L 71.734375 315.820312 L 77.402344 341.375 L 197.164062 325.949219 L 191.488281 300.410156 L 145.914062 305.933594 L 134.074219 252.539062 L 155.164062 250.34375 L 149.40625 224.386719 L 173.894531 221.058594 L 162.28125 168.695312 L 186.527344 165.40625 L 169.09375 86.78125 L 144.847656 90.078125 L 133.253906 37.800781 L 108.769531 41.128906 L 102.945312 14.863281 L 54.191406 10.253906 Z M 32.460938 23.613281 "/>
<path style=" stroke:none;fill-rule:nonzero;fill:rgb(87.843138%,58.431375%,0%);fill-opacity:1;" d="M 42.46875 184.984375 L 16.507812 188.511719 L 40.199219 174.289062 L 65.121094 170.902344 Z M 42.46875 184.984375 "/>
<path style=" stroke:none;fill-rule:nonzero;fill:rgb(87.843138%,58.431375%,0%);fill-opacity:1;" d="M 78.980469 233.390625 L 54.085938 236.234375 L 76.734375 223.265625 L 100.707031 220.007812 Z M 78.980469 233.390625 "/>
<path style=" stroke:none;fill-rule:nonzero;fill:rgb(87.843138%,58.431375%,0%);fill-opacity:1;" d="M 107.179688 256.867188 L 84.734375 259.347656 L 106.460938 245.960938 L 131.015625 242.625 Z M 107.179688 256.867188 "/>
<path style=" stroke:none;fill-rule:nonzero;fill:rgb(87.843138%,58.431375%,0%);fill-opacity:1;" d="M 197.164062 325.949219 L 77.402344 341.375 L 99.996094 328.167969 L 221 311.707031 Z M 197.164062 325.949219 "/>
<path style=" stroke:none;fill-rule:nonzero;fill:rgb(98.431373%,74.117649%,7.843138%);fill-opacity:1;" d="M 54.246094 10.484375 L 60.070312 36.746094 L 36.09375 40.003906 L 47.6875 92.28125 L 22.910156 95.652344 L 40.34375 174.269531 L 65.121094 170.902344 L 76.734375 223.265625 L 100.707031 220.007812 L 106.460938 245.960938 L 131.015625 242.625 L 142.859375 296.019531 L 94.328125 302.617188 L 99.996094 328.167969 L 221 311.707031 L 215.324219 286.167969 L 166.855469 292.757812 L 155.015625 239.363281 L 179 236.101562 L 173.242188 210.144531 L 197.726562 206.816406 L 186.117188 154.453125 L 210.363281 151.164062 L 192.929688 72.539062 L 168.683594 75.835938 L 157.089844 23.558594 L 132.605469 26.886719 L 126.78125 0.625 Z M 54.246094 10.484375 "/>
<path style=" stroke:none;fill-rule:nonzero;fill:rgb(98.431373%,95.294118%,7.843138%);fill-opacity:1;" d="M 65.878906 62.941406 L 41.90625 66.199219 L 36.09375 40.003906 L 60.070312 36.746094 Z M 65.878906 62.941406 "/>
<path style=" stroke:none;fill-rule:nonzero;fill:rgb(56.862748%,78.039217%,99.607843%);fill-opacity:1;" d="M 60.070312 36.746094 L 71.660156 89.023438 L 47.6875 92.28125 L 65.121094 170.902344 L 89.089844 167.621094 L 100.707031 220.007812 L 173.242188 210.144531 L 161.632812 157.785156 L 186.117188 154.453125 L 168.683594 75.835938 L 144.199219 79.164062 L 132.605469 26.886719 Z M 60.070312 36.746094 "/>
<path style=" stroke:none;fill-rule:nonzero;fill:rgb(89.019608%,92.941177%,97.254902%);fill-opacity:1;" d="M 149.945312 104.984375 L 125.417969 108.71875 L 119.605469 82.523438 L 144.199219 79.164062 Z M 149.945312 104.984375 "/>
<path style=" stroke:none;fill-rule:nonzero;fill:rgb(89.019608%,92.941177%,97.254902%);fill-opacity:1;" d="M 131.183594 134.914062 L 107.207031 138.171875 L 101.398438 111.976562 L 125.371094 108.71875 Z M 131.183594 134.914062 "/>
<path style=" stroke:none;fill-rule:nonzero;fill:rgb(89.019608%,92.941177%,97.254902%);fill-opacity:1;" d="M 113.011719 164.367188 L 89.039062 167.628906 L 83.230469 141.433594 L 107.203125 138.171875 Z M 113.011719 164.367188 "/>
</g>
</svg>
