<?xml version="1.0" encoding="UTF-8"?>
<svg xmlns="http://www.w3.org/2000/svg" xmlns:xlink="http://www.w3.org/1999/xlink" width="307.5pt" height="342pt" viewBox="0 0 307.5 342" version="1.1">
<g id="surface14">
<path style=" stroke:none;fill-rule:nonzero;fill:rgb(98.431373%,74.117649%,7.843138%);fill-opacity:1;" d="M 144.328125 163.046875 L 4.875 223.164062 L 21.324219 235.308594 L 29.785156 261.882812 L 15.460938 263.921875 L 32.792969 277.429688 L 30.273438 284.273438 L 47.570312 297.984375 L 55.734375 298.167969 L 54.191406 304.640625 L 72.804688 321.035156 L 79.855469 320.933594 L 79.152344 324.980469 L 101.21875 341.476562 L 138.863281 341.613281 L 164.550781 179.535156 Z M 144.328125 163.046875 "/>
<path style=" stroke:none;fill-rule:nonzero;fill:rgb(98.431373%,95.294118%,7.843138%);fill-opacity:1;" d="M 15.652344 162.695312 L 5.136719 223.164062 L 22.539062 223.210938 L 15.460938 263.921875 L 33.800781 263.972656 L 30.273438 284.273438 L 57.71875 284.347656 L 54.191406 304.640625 L 82.675781 304.714844 L 79.152344 324.980469 L 116.160156 325.082031 L 144.328125 163.046875 Z M 15.652344 162.695312 "/>
<path style=" stroke:none;fill-rule:nonzero;fill:rgb(92.941177%,61.960787%,0%);fill-opacity:1;" d="M 138.863281 341.613281 L 116.160156 325.082031 L 144.328125 163.046875 L 164.550781 179.535156 Z M 138.863281 341.613281 "/>
<path style=" stroke:none;fill-rule:nonzero;fill:rgb(98.431373%,74.117649%,7.843138%);fill-opacity:1;" d="M 64.375 203.277344 L 44.160156 203.222656 L 47.6875 182.921875 L 67.90625 182.976562 Z M 64.375 203.277344 "/>
<path style=" stroke:none;fill-rule:nonzero;fill:rgb(94.901961%,26.666668%,26.666668%);fill-opacity:1;" d="M 21.679688 158.753906 L 0 142.0625 L 156.382812 0.527344 L 178.101562 16.980469 L 153.519531 158.394531 Z M 21.679688 158.753906 "/>
<path style=" stroke:none;fill-rule:nonzero;fill:rgb(89.019608%,26.274511%,23.137255%);fill-opacity:1;" d="M 153.519531 158.394531 L 131.839844 141.703125 L 156.382812 0.527344 L 178.101562 16.980469 Z M 153.519531 158.394531 "/>
<path style=" stroke:none;fill-rule:nonzero;fill:rgb(100%,36.470589%,32.941177%);fill-opacity:1;" d="M 0 142.0625 L 6.894531 101.496094 L 26.300781 101.441406 L 33.335938 60.964844 L 54.699219 60.90625 L 58.136719 41.128906 L 82.464844 41.0625 L 85.996094 20.75 L 115.699219 20.671875 L 119.226562 0.386719 L 156.425781 0.285156 L 131.839844 141.703125 Z M 0 142.0625 "/>
<path style=" stroke:none;fill-rule:nonzero;fill:rgb(89.019608%,26.274511%,23.137255%);fill-opacity:1;" d="M 130.476562 40.984375 L 112.285156 40.929688 L 115.816406 20.628906 L 134.007812 20.683594 Z M 130.476562 40.984375 "/>
<path style=" stroke:none;fill-rule:nonzero;fill:rgb(43.921569%,76.078433%,0%);fill-opacity:1;" d="M 191.789062 37.164062 L 138.863281 341.613281 L 175.683594 341.714844 L 179.203125 321.449219 L 217.488281 321.550781 L 221.015625 301.257812 L 241.230469 301.3125 L 244.761719 281.011719 L 263.695312 281.0625 L 270.773438 240.351562 L 289.425781 240.402344 L 307 139.304688 L 284.296875 122.773438 Z M 191.789062 37.164062 "/>
<path style=" stroke:none;fill-rule:nonzero;fill:rgb(43.921569%,76.078433%,0%);fill-opacity:1;" d="M 225.792969 51.339844 L 190.78125 48.644531 L 205.90625 20.730469 L 228.164062 37.703125 Z M 225.792969 51.339844 "/>
<path style=" stroke:none;fill-rule:nonzero;fill:rgb(43.921569%,76.078433%,0%);fill-opacity:1;" d="M 257.453125 60.882812 L 231.488281 62.683594 L 240.785156 40.40625 L 258.101562 57.5 Z M 257.453125 60.882812 "/>
<path style=" stroke:none;fill-rule:nonzero;fill:rgb(43.921569%,76.078433%,0%);fill-opacity:1;" d="M 277.632812 87.550781 L 251.035156 87.03125 L 257.453125 60.882812 L 279.503906 76.789062 Z M 277.632812 87.550781 "/>
<path style=" stroke:none;fill-rule:nonzero;fill:rgb(38.82353%,67.058825%,0%);fill-opacity:1;" d="M 289.9375 126.878906 L 284.296875 122.773438 L 255.941406 127.117188 L 272.710938 82.089844 L 295.101562 97.167969 Z M 289.9375 126.878906 "/>
<path style=" stroke:none;fill-rule:nonzero;fill:rgb(68.235296%,90.196079%,0%);fill-opacity:1;" d="M 169.085938 20.628906 L 116.160156 325.082031 L 152.976562 325.179688 L 156.5 304.914062 L 194.785156 305.019531 L 198.3125 284.726562 L 218.527344 284.78125 L 222.058594 264.480469 L 240.992188 264.53125 L 248.070312 223.820312 L 266.722656 223.871094 L 284.296875 122.773438 L 265.644531 122.722656 L 272.710938 82.089844 L 253.773438 82.039062 L 257.453125 60.871094 L 237.238281 60.816406 L 240.785156 40.40625 L 202.503906 40.300781 L 205.90625 20.730469 Z M 169.085938 20.628906 "/>
<path style=" stroke:none;fill-rule:nonzero;fill:rgb(38.82353%,67.058825%,0%);fill-opacity:1;" d="M 175.683594 341.714844 L 138.863281 341.613281 L 116.160156 325.082031 L 152.976562 325.179688 Z M 175.683594 341.714844 "/>
<path style=" stroke:none;fill-rule:nonzero;fill:rgb(38.82353%,67.058825%,0%);fill-opacity:1;" d="M 217.488281 321.550781 L 179.203125 321.449219 L 156.5 304.914062 L 194.785156 305.019531 Z M 217.488281 321.550781 "/>
<path style=" stroke:none;fill-rule:nonzero;fill:rgb(38.82353%,67.058825%,0%);fill-opacity:1;" d="M 241.230469 301.3125 L 221.015625 301.257812 L 198.3125 284.726562 L 218.527344 284.78125 Z M 241.230469 301.3125 "/>
<path style=" stroke:none;fill-rule:nonzero;fill:rgb(38.82353%,67.058825%,0%);fill-opacity:1;" d="M 263.695312 281.0625 L 244.761719 281.011719 L 222.058594 264.480469 L 240.992188 264.53125 Z M 263.695312 281.0625 "/>
<path style=" stroke:none;fill-rule:nonzero;fill:rgb(38.82353%,67.058825%,0%);fill-opacity:1;" d="M 289.425781 240.402344 L 270.773438 240.351562 L 248.070312 223.820312 L 266.722656 223.871094 Z M 289.425781 240.402344 "/>
<path style=" stroke:none;fill-rule:nonzero;fill:rgb(43.921569%,76.078433%,0%);fill-opacity:1;" d="M 180.253906 284.671875 L 160.039062 284.617188 L 163.566406 264.316406 L 183.785156 264.371094 Z M 180.253906 284.671875 "/>
</g>
</svg>
