<?xml version="1.0" encoding="UTF-8"?>
<svg xmlns="http://www.w3.org/2000/svg" xmlns:xlink="http://www.w3.org/1999/xlink" width="342pt" height="254.25pt" viewBox="0 0 342 254.25" version="1.1">
<g id="surface8848">
<path style=" stroke:none;fill-rule:nonzero;fill:rgb(38.82353%,67.058825%,0%);fill-opacity:1;" d="M 327.515625 88.1875 L 324.4375 78.902344 L 336.308594 76.066406 L 341.644531 63.820312 L 309.253906 61.441406 L 48.0625 48.898438 L 42.726562 61.144531 L 49.429688 81.390625 L 33.9375 74.164062 L 28.601562 86.40625 L 34.941406 105.800781 L 20.109375 98.609375 L 14.773438 110.851562 L 21.140625 130.496094 L 5.691406 123.238281 L 0.355469 135.480469 L 6.351562 154.96875 L 27.4375 149.925781 L 33.96875 170.066406 L 54.34375 165.144531 L 60.792969 184.867188 L 81.675781 179.859375 L 87.011719 167.617188 L 84.046875 158.148438 L 95.769531 155.445312 L 127.652344 254 L 292.667969 214.179688 L 298.003906 201.9375 L 260.761719 115.269531 L 281.128906 110.347656 L 287.761719 130.207031 L 308.269531 125.269531 L 313.605469 113.023438 L 310.351562 103.269531 L 322.179688 100.429688 Z M 327.515625 88.1875 "/>
<path style=" stroke:none;fill-rule:nonzero;fill:rgb(68.235296%,90.196079%,0%);fill-opacity:1;" d="M 321.070312 68.742188 L 341.644531 63.820312 L 334.566406 44.410156 L 314.589844 49.199219 L 308.042969 29.449219 L 287.390625 34.410156 L 287.394531 34.433594 L 280.820312 14.714844 L 260.261719 19.667969 L 253.695312 0 L 48.0625 48.898438 L 54.765625 69.148438 L 33.9375 74.164062 L 40.277344 93.554688 L 20.109375 98.609375 L 26.476562 118.253906 L 5.691406 123.238281 L 11.6875 142.726562 L 32.773438 137.683594 L 39.304688 157.824219 L 59.679688 152.902344 L 66.128906 172.625 L 87.011719 167.617188 L 80.824219 147.882812 L 101.105469 143.203125 L 120.171875 202.140625 L 130.042969 211.984375 L 126.578125 221.945312 L 132.988281 241.757812 L 298.003906 201.9375 L 266.097656 103.023438 L 286.464844 98.105469 L 293.101562 117.964844 L 313.605469 113.023438 L 306.96875 93.121094 L 327.515625 88.1875 Z M 321.070312 68.742188 "/>
<path style=" stroke:none;fill-rule:nonzero;fill:rgb(68.235296%,90.196079%,0%);fill-opacity:1;" d="M 341.644531 63.820312 L 321.070312 68.742188 L 314.589844 49.199219 L 334.566406 44.410156 Z M 341.644531 63.820312 "/>
<path style=" stroke:none;fill-rule:nonzero;fill:rgb(68.235296%,90.196079%,0%);fill-opacity:1;" d="M 327.515625 88.1875 L 306.96875 93.121094 L 300.492188 73.664062 L 321.070312 68.742188 Z M 327.515625 88.1875 "/>
<path style=" stroke:none;fill-rule:nonzero;fill:rgb(43.921569%,76.078433%,0%);fill-opacity:1;" d="M 286.464844 98.105469 L 265.910156 103.070312 L 259.558594 83.515625 L 279.941406 78.578125 Z M 286.464844 98.105469 "/>
<path style=" stroke:none;fill-rule:nonzero;fill:rgb(68.235296%,90.196079%,0%);fill-opacity:1;" d="M 259.558594 83.515625 L 238.988281 88.4375 L 232.597656 68.742188 L 253.160156 63.800781 Z M 259.558594 83.515625 "/>
<path style=" stroke:none;fill-rule:nonzero;fill:rgb(68.235296%,90.196079%,0%);fill-opacity:1;" d="M 219.796875 29.285156 L 199.210938 34.1875 L 192.820312 14.476562 L 213.402344 9.582031 Z M 219.796875 29.285156 "/>
<path style=" stroke:none;fill-rule:nonzero;fill:rgb(38.82353%,67.058825%,0%);fill-opacity:1;" d="M 205.605469 53.90625 L 185.007812 58.820312 L 191.402344 78.550781 L 150.175781 88.4375 L 143.789062 68.648438 L 123.132812 73.578125 L 110.355469 34.085938 L 192.820312 14.476562 Z M 205.605469 53.90625 "/>
<path style=" stroke:none;fill-rule:nonzero;fill:rgb(68.235296%,90.196079%,0%);fill-opacity:1;" d="M 96.089844 58.746094 L 75.421875 63.667969 L 69.035156 43.914062 L 89.703125 38.996094 Z M 96.089844 58.746094 "/>
<path style=" stroke:none;fill-rule:nonzero;fill:rgb(68.235296%,90.196079%,0%);fill-opacity:1;" d="M 161.515625 192.195312 L 140.855469 197.164062 L 134.453125 177.371094 L 155.113281 172.410156 Z M 161.515625 192.195312 "/>
<path style=" stroke:none;fill-rule:nonzero;fill:rgb(68.235296%,90.196079%,0%);fill-opacity:1;" d="M 147.257812 216.964844 L 126.582031 221.945312 L 120.179688 202.136719 L 140.855469 197.164062 Z M 147.257812 216.964844 "/>
<path style=" stroke:none;fill-rule:nonzero;fill:rgb(68.235296%,90.196079%,0%);fill-opacity:1;" d="M 174.324219 231.78125 L 153.664062 236.769531 L 147.257812 216.964844 L 167.917969 211.984375 Z M 174.324219 231.78125 "/>
<path style=" stroke:none;fill-rule:nonzero;fill:rgb(43.921569%,76.078433%,0%);fill-opacity:1;" d="M 277.425781 206.910156 L 256.820312 211.882812 L 250.410156 192.109375 L 271.015625 187.144531 Z M 277.425781 206.910156 "/>
<path style=" stroke:none;fill-rule:nonzero;fill:rgb(43.921569%,76.078433%,0%);fill-opacity:1;" d="M 291.59375 182.1875 L 271.015625 187.144531 L 264.605469 167.390625 L 285.183594 162.4375 Z M 291.59375 182.1875 "/>
<path style=" stroke:none;fill-rule:nonzero;fill:rgb(68.235296%,90.196079%,0%);fill-opacity:1;" d="M 298.003906 201.9375 L 277.425781 206.902344 L 271.015625 187.144531 L 291.59375 182.1875 Z M 298.003906 201.9375 "/>
<path style=" stroke:none;fill-rule:nonzero;fill:rgb(68.235296%,90.196079%,0%);fill-opacity:1;" d="M 260.261719 19.667969 L 240.363281 24.386719 L 233.96875 4.691406 L 253.695312 0 Z M 260.261719 19.667969 "/>
<path style=" stroke:none;fill-rule:nonzero;fill:rgb(68.235296%,90.196079%,0%);fill-opacity:1;" d="M 47.21875 113.28125 L 26.476562 118.253906 L 20.109375 98.609375 L 40.277344 93.554688 Z M 47.21875 113.28125 "/>
<path style=" stroke:none;fill-rule:nonzero;fill:rgb(43.921569%,76.078433%,0%);fill-opacity:1;" d="M 59.679688 152.902344 L 39.304688 157.824219 L 32.773438 137.683594 L 53.277344 132.78125 Z M 59.679688 152.902344 "/>
</g>
</svg>
