<?xml version="1.0" encoding="UTF-8"?>
<svg xmlns="http://www.w3.org/2000/svg" xmlns:xlink="http://www.w3.org/1999/xlink" width="342pt" height="247.5pt" viewBox="0 0 342 247.5" version="1.1">
<g id="surface356">
<path style=" stroke:none;fill-rule:nonzero;fill:rgb(98.431373%,74.117649%,7.843138%);fill-opacity:1;" d="M 279.789062 94.621094 L 260.09375 95.980469 L 246.261719 41.84375 L 286.78125 39.046875 L 282.023438 21.082031 L 341.503906 16.917969 L 337.246094 0 L 237.332031 6.90625 L 241.652344 23.820312 L 143.371094 30.617188 L 147.976562 48.644531 L 127.316406 50.070312 L 131.863281 67.867188 L 91.503906 70.65625 L 96.070312 88.523438 L 35.886719 92.6875 L 40.609375 111.15625 L 81.09375 108.355469 L 85.542969 125.761719 L 45.109375 128.773438 L 40.609375 111.15625 L 20.777344 112.527344 L 25.226562 129.933594 L 5.816406 131.402344 L 14.78125 166.484375 L 54.054688 163.769531 L 49.675781 146.636719 L 69.5 145.269531 L 73.878906 162.398438 L 94.539062 160.96875 L 90.160156 143.839844 L 109.859375 142.476562 L 114.238281 159.609375 L 134.898438 158.179688 L 130.519531 141.050781 L 150.113281 139.691406 L 154.597656 156.820312 L 175.257812 155.390625 L 179.785156 173.101562 L 159.125 174.527344 L 164 192.25 L 143.957031 193.632812 L 139.425781 175.890625 L 118.761719 177.320312 L 123.296875 195.0625 L 103.601562 196.425781 L 99.066406 178.679688 L 78.40625 180.109375 L 82.9375 197.851562 L 63.113281 199.222656 L 58.578125 181.480469 L 38.75 182.851562 L 47.8125 218.328125 L 67.644531 216.957031 L 72.234375 234.898438 L 213.191406 225.378906 L 208.546875 207.214844 L 246.773438 204.570312 L 242.175781 186.59375 L 261.9375 185.476562 L 257.40625 167.734375 L 278.066406 166.308594 L 273.539062 148.597656 L 252.878906 150.023438 L 248.5 132.890625 L 288.859375 130.101562 Z M 166.257812 120.183594 L 152.527344 66.441406 L 172.226562 65.074219 L 176.789062 82.945312 L 197.449219 81.515625 L 206.621094 117.390625 Z M 166.257812 120.183594 "/>
<path style=" stroke:none;fill-rule:nonzero;fill:rgb(90.980393%,56.078434%,0%);fill-opacity:1;" d="M 35.886719 92.6875 L 31.507812 105.582031 L 33.0625 111.675781 L 40.609375 111.15625 Z M 35.886719 92.6875 "/>
<path style=" stroke:none;fill-rule:nonzero;fill:rgb(90.980393%,56.078434%,0%);fill-opacity:1;" d="M 20.777344 112.527344 L 16.164062 124.289062 L 17.75 130.5 L 25.226562 129.933594 Z M 20.777344 112.527344 "/>
<path style=" stroke:none;fill-rule:nonzero;fill:rgb(90.980393%,56.078434%,0%);fill-opacity:1;" d="M 5.816406 131.402344 L 0.496094 142.707031 L 9.632812 178.457031 L 14.78125 166.484375 Z M 5.816406 131.402344 "/>
<path style=" stroke:none;fill-rule:nonzero;fill:rgb(81.960785%,45.490196%,1.960784%);fill-opacity:1;" d="M 9.632812 178.457031 L 49.425781 175.707031 L 54.054688 163.769531 L 14.78125 166.484375 Z M 9.632812 178.457031 "/>
<path style=" stroke:none;fill-rule:nonzero;fill:rgb(81.960785%,45.490196%,1.960784%);fill-opacity:1;" d="M 40.609375 111.15625 L 43.648438 122.503906 L 75.941406 120.15625 L 81.09375 108.355469 Z M 40.609375 111.15625 "/>
<path style=" stroke:none;fill-rule:nonzero;fill:rgb(81.960785%,45.490196%,1.960784%);fill-opacity:1;" d="M 73.878906 162.398438 L 68.75 174.371094 L 89.429688 172.941406 L 94.539062 160.96875 Z M 73.878906 162.398438 "/>
<path style=" stroke:none;fill-rule:nonzero;fill:rgb(90.980393%,56.078434%,0%);fill-opacity:1;" d="M 69.5 145.269531 L 64.09375 156.152344 L 68.75 174.371094 L 73.878906 162.398438 Z M 69.5 145.269531 "/>
<path style=" stroke:none;fill-rule:nonzero;fill:rgb(90.980393%,56.078434%,0%);fill-opacity:1;" d="M 75.941406 120.15625 L 77.527344 126.359375 L 85.542969 125.761719 L 81.09375 108.355469 Z M 75.941406 120.15625 "/>
<path style=" stroke:none;fill-rule:nonzero;fill:rgb(81.960785%,45.490196%,1.960784%);fill-opacity:1;" d="M 64.09375 156.152344 L 52.316406 156.96875 L 49.675781 146.636719 L 69.5 145.269531 Z M 64.09375 156.152344 "/>
<path style=" stroke:none;fill-rule:nonzero;fill:rgb(81.960785%,45.490196%,1.960784%);fill-opacity:1;" d="M 109.859375 142.476562 L 104.453125 153.363281 L 92.800781 154.167969 L 90.160156 143.839844 Z M 109.859375 142.476562 "/>
<path style=" stroke:none;fill-rule:nonzero;fill:rgb(90.980393%,56.078434%,0%);fill-opacity:1;" d="M 109.859375 142.476562 L 114.238281 159.609375 L 109.109375 171.582031 L 104.453125 153.363281 Z M 109.859375 142.476562 "/>
<path style=" stroke:none;fill-rule:nonzero;fill:rgb(81.960785%,45.490196%,1.960784%);fill-opacity:1;" d="M 134.898438 158.179688 L 129.789062 170.152344 L 109.109375 171.582031 L 114.238281 159.609375 Z M 134.898438 158.179688 "/>
<path style=" stroke:none;fill-rule:nonzero;fill:rgb(90.980393%,56.078434%,0%);fill-opacity:1;" d="M 150.113281 139.691406 L 144.304688 150.609375 L 148.960938 168.824219 L 154.597656 156.820312 Z M 150.113281 139.691406 "/>
<path style=" stroke:none;fill-rule:nonzero;fill:rgb(81.960785%,45.490196%,1.960784%);fill-opacity:1;" d="M 148.960938 168.824219 L 168.808594 167.453125 L 175.257812 155.390625 L 154.597656 156.820312 Z M 148.960938 168.824219 "/>
<path style=" stroke:none;fill-rule:nonzero;fill:rgb(81.960785%,45.490196%,1.960784%);fill-opacity:1;" d="M 133.160156 151.378906 L 144.304688 150.609375 L 150.113281 139.691406 L 130.519531 141.050781 Z M 133.160156 151.378906 "/>
<path style=" stroke:none;fill-rule:nonzero;fill:rgb(90.980393%,56.078434%,0%);fill-opacity:1;" d="M 168.808594 167.453125 L 170.417969 173.75 L 179.785156 173.101562 L 175.257812 155.390625 Z M 168.808594 167.453125 "/>
<path style=" stroke:none;fill-rule:nonzero;fill:rgb(90.980393%,56.078434%,0%);fill-opacity:1;" d="M 159.125 174.527344 L 153.742188 187.546875 L 155.101562 192.863281 L 164 192.25 Z M 159.125 174.527344 "/>
<path style=" stroke:none;fill-rule:nonzero;fill:rgb(90.980393%,56.078434%,0%);fill-opacity:1;" d="M 118.761719 177.320312 L 113.867188 190.199219 L 115.164062 195.554688 L 123.296875 195.0625 Z M 118.761719 177.320312 "/>
<path style=" stroke:none;fill-rule:nonzero;fill:rgb(90.980393%,56.078434%,0%);fill-opacity:1;" d="M 78.40625 180.109375 L 73.21875 191.851562 L 74.804688 198.449219 L 82.9375 197.851562 Z M 78.40625 180.109375 "/>
<path style=" stroke:none;fill-rule:nonzero;fill:rgb(90.980393%,56.078434%,0%);fill-opacity:1;" d="M 38.75 182.851562 L 34.285156 195.199219 L 43.292969 230.449219 L 47.8125 218.328125 Z M 38.75 182.851562 "/>
<path style=" stroke:none;fill-rule:nonzero;fill:rgb(81.960785%,45.490196%,1.960784%);fill-opacity:1;" d="M 43.292969 230.449219 L 62.957031 228.648438 L 67.644531 216.957031 L 47.8125 218.328125 Z M 43.292969 230.449219 "/>
<path style=" stroke:none;fill-rule:nonzero;fill:rgb(90.980393%,56.078434%,0%);fill-opacity:1;" d="M 62.957031 228.648438 L 67.644531 247 L 72.234375 234.898438 L 67.644531 216.957031 Z M 62.957031 228.648438 "/>
<path style=" stroke:none;fill-rule:nonzero;fill:rgb(81.960785%,45.490196%,1.960784%);fill-opacity:1;" d="M 67.644531 247 L 207.175781 237.011719 L 213.191406 225.378906 L 72.234375 234.898438 Z M 67.644531 247 "/>
<path style=" stroke:none;fill-rule:nonzero;fill:rgb(81.960785%,45.490196%,1.960784%);fill-opacity:1;" d="M 246.773438 204.570312 L 242.246094 216.414062 L 211.441406 218.542969 L 208.546875 207.214844 Z M 246.773438 204.570312 "/>
<path style=" stroke:none;fill-rule:nonzero;fill:rgb(81.960785%,45.490196%,1.960784%);fill-opacity:1;" d="M 245.277344 198.726562 L 257.324219 197.894531 L 261.9375 185.476562 L 242.175781 186.59375 Z M 245.277344 198.726562 "/>
<path style=" stroke:none;fill-rule:nonzero;fill:rgb(81.960785%,45.490196%,1.960784%);fill-opacity:1;" d="M 260.5 179.625 L 272.863281 178.769531 L 278.066406 166.308594 L 257.40625 167.734375 Z M 260.5 179.625 "/>
<path style=" stroke:none;fill-rule:nonzero;fill:rgb(81.960785%,45.490196%,1.960784%);fill-opacity:1;" d="M 288.859375 130.101562 L 283.082031 141.015625 L 251.140625 143.222656 L 248.5 132.890625 Z M 288.859375 130.101562 "/>
<path style=" stroke:none;fill-rule:nonzero;fill:rgb(81.960785%,45.490196%,1.960784%);fill-opacity:1;" d="M 286.78125 39.046875 L 280.765625 50.902344 L 249.109375 52.988281 L 246.261719 41.84375 Z M 286.78125 39.046875 "/>
<path style=" stroke:none;fill-rule:nonzero;fill:rgb(81.960785%,45.490196%,1.960784%);fill-opacity:1;" d="M 282.023438 21.082031 L 341.503906 16.917969 L 335.925781 30.375 L 285.410156 33.867188 Z M 282.023438 21.082031 "/>
<path style=" stroke:none;fill-rule:nonzero;fill:rgb(90.980393%,56.078434%,0%);fill-opacity:1;" d="M 237.332031 6.90625 L 231.960938 18.71875 L 233.378906 24.390625 L 241.652344 23.820312 Z M 237.332031 6.90625 "/>
<path style=" stroke:none;fill-rule:nonzero;fill:rgb(90.980393%,56.078434%,0%);fill-opacity:1;" d="M 143.371094 30.617188 L 137.285156 44.105469 L 138.609375 49.289062 L 147.976562 48.644531 Z M 143.371094 30.617188 "/>
<path style=" stroke:none;fill-rule:nonzero;fill:rgb(90.980393%,56.078434%,0%);fill-opacity:1;" d="M 127.316406 50.070312 L 121.636719 61.902344 L 123.308594 68.457031 L 131.863281 67.867188 Z M 127.316406 50.070312 "/>
<path style=" stroke:none;fill-rule:nonzero;fill:rgb(90.980393%,56.078434%,0%);fill-opacity:1;" d="M 91.503906 70.65625 L 86.535156 83.242188 L 88.027344 89.078125 L 96.070312 88.523438 Z M 91.503906 70.65625 "/>
<path style=" stroke:none;fill-rule:nonzero;fill:rgb(81.960785%,45.490196%,1.960784%);fill-opacity:1;" d="M 152.527344 66.441406 L 172.226562 65.074219 L 166.46875 77.71875 L 155.601562 78.46875 Z M 152.527344 66.441406 "/>
<path style=" stroke:none;fill-rule:nonzero;fill:rgb(81.960785%,45.490196%,1.960784%);fill-opacity:1;" d="M 176.789062 82.945312 L 171.121094 95.929688 L 191.238281 94.539062 L 197.449219 81.515625 Z M 176.789062 82.945312 "/>
<path style=" stroke:none;fill-rule:nonzero;fill:rgb(90.980393%,56.078434%,0%);fill-opacity:1;" d="M 172.226562 65.074219 L 176.789062 82.945312 L 171.121094 95.929688 L 166.46875 77.71875 Z M 172.226562 65.074219 "/>
<path style=" stroke:none;fill-rule:nonzero;fill:rgb(90.980393%,56.078434%,0%);fill-opacity:1;" d="M 197.449219 81.515625 L 206.621094 117.390625 L 197.242188 118.039062 L 191.238281 94.539062 Z M 197.449219 81.515625 "/>
</g>
</svg>
