<?xml version="1.0" encoding="UTF-8"?>
<svg xmlns="http://www.w3.org/2000/svg" xmlns:xlink="http://www.w3.org/1999/xlink" width="342pt" height="254.25pt" viewBox="0 0 342 254.25" version="1.1">
<g id="surface255">
<path style=" stroke:none;fill-rule:nonzero;fill:rgb(100%,100%,100%);fill-opacity:1;" d="M 118.972656 30.566406 L 124.734375 49.101562 L 151.457031 68.625 L 93.289062 79.855469 L 44.035156 54.3125 L 20.121094 60.230469 L 37.207031 97.640625 L 52.582031 104.359375 L 43.132812 116.335938 L 46.746094 145.210938 L 92.371094 141.847656 L 148.871094 147.035156 L 141.585938 167.382812 L 134.773438 210.6875 L 140.960938 245.132812 L 178.085938 217.523438 C 178.085938 217.523438 216.445312 141.734375 216.398438 143.65625 C 216.347656 145.578125 322.578125 89.410156 322.578125 89.410156 L 324.019531 67.824219 L 310.753906 52.011719 L 267.441406 45.175781 L 205.40625 44.28125 L 156.351562 18.695312 Z M 118.972656 30.566406 "/>
<path style=" stroke:none;fill-rule:nonzero;fill:rgb(68.235296%,90.196079%,0%);fill-opacity:1;" d="M 30.371094 140.953125 L 49.0625 135.027344 L 54.988281 153.71875 L 36.296875 159.648438 Z M 30.371094 140.953125 "/>
<path style=" stroke:none;fill-rule:nonzero;fill:rgb(68.235296%,90.196079%,0%);fill-opacity:1;" d="M 24.441406 122.261719 L 43.132812 116.332031 L 49.0625 135.027344 L 30.371094 140.953125 Z M 24.441406 122.261719 "/>
<path style=" stroke:none;fill-rule:nonzero;fill:rgb(68.235296%,90.196079%,0%);fill-opacity:1;" d="M 37.207031 97.640625 L 55.898438 91.714844 L 61.828125 110.40625 L 43.132812 116.335938 Z M 37.207031 97.640625 "/>
<path style=" stroke:none;fill-rule:nonzero;fill:rgb(68.235296%,90.196079%,0%);fill-opacity:1;" d="M 12.585938 84.878906 L 31.277344 78.949219 L 37.207031 97.640625 L 18.515625 103.570312 Z M 12.585938 84.878906 "/>
<path style=" stroke:none;fill-rule:nonzero;fill:rgb(68.235296%,90.196079%,0%);fill-opacity:1;" d="M 6.65625 66.1875 L 25.351562 60.257812 L 31.277344 78.949219 L 12.585938 84.878906 Z M 6.65625 66.1875 "/>
<path style=" stroke:none;fill-rule:nonzero;fill:rgb(68.235296%,90.196079%,0%);fill-opacity:1;" d="M 0.730469 47.492188 L 19.421875 41.566406 L 25.351562 60.257812 L 6.65625 66.183594 Z M 0.730469 47.492188 "/>
<path style=" stroke:none;fill-rule:nonzero;fill:rgb(68.235296%,90.196079%,0%);fill-opacity:1;" d="M 49.0625 135.027344 L 67.753906 129.097656 L 73.683594 147.789062 L 54.992188 153.71875 Z M 49.0625 135.027344 "/>
<path style=" stroke:none;fill-rule:nonzero;fill:rgb(68.235296%,90.196079%,0%);fill-opacity:1;" d="M 67.753906 129.097656 L 86.445312 123.171875 L 92.375 141.863281 L 73.683594 147.789062 Z M 67.753906 129.097656 "/>
<path style=" stroke:none;fill-rule:nonzero;fill:rgb(68.235296%,90.196079%,0%);fill-opacity:1;" d="M 92.371094 141.847656 L 111.0625 135.917969 L 116.992188 154.613281 L 98.296875 160.539062 Z M 92.371094 141.847656 "/>
<path style=" stroke:none;fill-rule:nonzero;fill:rgb(68.235296%,90.196079%,0%);fill-opacity:1;" d="M 111.035156 135.929688 L 129.726562 130 L 135.65625 148.691406 L 116.964844 154.621094 Z M 111.035156 135.929688 "/>
<path style=" stroke:none;fill-rule:nonzero;fill:rgb(68.235296%,90.196079%,0%);fill-opacity:1;" d="M 129.730469 130 L 148.421875 124.070312 L 154.347656 142.765625 L 135.65625 148.691406 Z M 129.730469 130 "/>
<path style=" stroke:none;fill-rule:nonzero;fill:rgb(68.235296%,90.196079%,0%);fill-opacity:1;" d="M 135.65625 148.691406 L 154.347656 142.761719 L 160.277344 161.457031 L 141.585938 167.382812 Z M 135.65625 148.691406 "/>
<path style=" stroke:none;fill-rule:nonzero;fill:rgb(68.235296%,90.196079%,0%);fill-opacity:1;" d="M 122.894531 173.3125 L 141.585938 167.382812 L 147.511719 186.074219 L 128.820312 192.003906 Z M 122.894531 173.3125 "/>
<path style=" stroke:none;fill-rule:nonzero;fill:rgb(68.235296%,90.196079%,0%);fill-opacity:1;" d="M 128.847656 191.996094 L 147.539062 186.066406 L 153.46875 204.761719 L 134.773438 210.6875 Z M 128.847656 191.996094 "/>
<path style=" stroke:none;fill-rule:nonzero;fill:rgb(68.235296%,90.196079%,0%);fill-opacity:1;" d="M 116.082031 216.617188 L 134.773438 210.6875 L 140.703125 229.378906 L 122.011719 235.308594 Z M 116.082031 216.617188 "/>
<path style=" stroke:none;fill-rule:nonzero;fill:rgb(68.235296%,90.196079%,0%);fill-opacity:1;" d="M 122.011719 235.308594 L 140.703125 229.378906 L 146.632812 248.074219 L 127.9375 254 Z M 122.011719 235.308594 "/>
<path style=" stroke:none;fill-rule:nonzero;fill:rgb(68.235296%,90.196079%,0%);fill-opacity:1;" d="M 140.703125 229.378906 L 159.394531 223.453125 L 165.324219 242.144531 L 146.632812 248.074219 Z M 140.703125 229.378906 "/>
<path style=" stroke:none;fill-rule:nonzero;fill:rgb(68.235296%,90.196079%,0%);fill-opacity:1;" d="M 159.394531 223.453125 L 178.085938 217.523438 L 184.015625 236.214844 L 165.324219 242.144531 Z M 159.394531 223.453125 "/>
<path style=" stroke:none;fill-rule:nonzero;fill:rgb(43.921569%,76.078433%,0%);fill-opacity:1;" d="M 172.132812 198.839844 L 190.828125 192.910156 L 196.753906 211.605469 L 178.0625 217.53125 Z M 172.132812 198.839844 "/>
<path style=" stroke:none;fill-rule:nonzero;fill:rgb(68.235296%,90.196079%,0%);fill-opacity:1;" d="M 184.898438 174.21875 L 203.589844 168.292969 L 209.519531 186.984375 L 190.828125 192.910156 Z M 184.898438 174.21875 "/>
<path style=" stroke:none;fill-rule:nonzero;fill:rgb(68.235296%,90.196079%,0%);fill-opacity:1;" d="M 197.660156 149.597656 L 216.355469 143.671875 L 222.28125 162.363281 L 203.589844 168.292969 Z M 197.660156 149.597656 "/>
<path style=" stroke:none;fill-rule:nonzero;fill:rgb(68.235296%,90.196079%,0%);fill-opacity:1;" d="M 210.46875 124.964844 L 229.160156 119.035156 L 235.089844 137.726562 L 216.398438 143.65625 Z M 210.46875 124.964844 "/>
<path style=" stroke:none;fill-rule:nonzero;fill:rgb(68.235296%,90.196079%,0%);fill-opacity:1;" d="M 229.160156 119.035156 L 247.851562 113.105469 L 253.78125 131.800781 L 235.089844 137.726562 Z M 229.160156 119.035156 "/>
<path style=" stroke:none;fill-rule:nonzero;fill:rgb(68.235296%,90.196079%,0%);fill-opacity:1;" d="M 247.851562 113.105469 L 266.546875 107.179688 L 272.472656 125.871094 L 253.78125 131.800781 Z M 247.851562 113.105469 "/>
<path style=" stroke:none;fill-rule:nonzero;fill:rgb(68.235296%,90.196079%,0%);fill-opacity:1;" d="M 266.546875 107.179688 L 285.238281 101.25 L 291.167969 119.941406 L 272.472656 125.871094 Z M 266.546875 107.179688 "/>
<path style=" stroke:none;fill-rule:nonzero;fill:rgb(68.235296%,90.196079%,0%);fill-opacity:1;" d="M 285.238281 101.25 L 303.929688 95.324219 L 309.859375 114.015625 L 291.164062 119.945312 Z M 285.238281 101.25 "/>
<path style=" stroke:none;fill-rule:nonzero;fill:rgb(68.235296%,90.196079%,0%);fill-opacity:1;" d="M 303.886719 95.335938 L 322.578125 89.410156 L 328.507812 108.101562 L 309.816406 114.027344 Z M 303.886719 95.335938 "/>
<path style=" stroke:none;fill-rule:nonzero;fill:rgb(68.235296%,90.196079%,0%);fill-opacity:1;" d="M 316.648438 70.71875 L 335.339844 64.789062 L 341.269531 83.480469 L 322.578125 89.410156 Z M 316.648438 70.71875 "/>
<path style=" stroke:none;fill-rule:nonzero;fill:rgb(68.235296%,90.196079%,0%);fill-opacity:1;" d="M 310.753906 52.015625 L 329.449219 46.085938 L 335.375 64.777344 L 316.683594 70.707031 Z M 310.753906 52.015625 "/>
<path style=" stroke:none;fill-rule:nonzero;fill:rgb(68.235296%,90.196079%,0%);fill-opacity:1;" d="M 286.136719 39.25 L 304.828125 33.320312 L 310.753906 52.015625 L 292.0625 57.941406 Z M 286.136719 39.25 "/>
<path style=" stroke:none;fill-rule:nonzero;fill:rgb(68.235296%,90.196079%,0%);fill-opacity:1;" d="M 267.441406 45.179688 L 286.136719 39.25 L 292.0625 57.941406 L 273.371094 63.871094 Z M 267.441406 45.179688 "/>
<path style=" stroke:none;fill-rule:nonzero;fill:rgb(68.235296%,90.196079%,0%);fill-opacity:1;" d="M 242.824219 32.414062 L 261.515625 26.484375 L 267.441406 45.179688 L 248.75 51.105469 Z M 242.824219 32.414062 "/>
<path style=" stroke:none;fill-rule:nonzero;fill:rgb(68.235296%,90.196079%,0%);fill-opacity:1;" d="M 224.140625 38.339844 L 242.832031 32.410156 L 248.761719 51.101562 L 230.070312 57.03125 Z M 224.140625 38.339844 "/>
<path style=" stroke:none;fill-rule:nonzero;fill:rgb(68.235296%,90.196079%,0%);fill-opacity:1;" d="M 205.449219 44.265625 L 224.140625 38.339844 L 230.070312 57.03125 L 211.375 62.957031 Z M 205.449219 44.265625 "/>
<path style=" stroke:none;fill-rule:nonzero;fill:rgb(68.235296%,90.196079%,0%);fill-opacity:1;" d="M 186.757812 50.195312 L 205.449219 44.265625 L 211.378906 62.957031 L 192.683594 68.886719 Z M 186.757812 50.195312 "/>
<path style=" stroke:none;fill-rule:nonzero;fill:rgb(43.921569%,76.078433%,0%);fill-opacity:1;" d="M 180.785156 31.515625 L 199.476562 25.589844 L 205.40625 44.28125 L 186.714844 50.207031 Z M 180.785156 31.515625 "/>
<path style=" stroke:none;fill-rule:nonzero;fill:rgb(43.921569%,76.078433%,0%);fill-opacity:1;" d="M 168.0625 56.121094 L 186.757812 50.195312 L 192.683594 68.886719 L 173.992188 74.816406 Z M 168.0625 56.121094 "/>
<path style=" stroke:none;fill-rule:nonzero;fill:rgb(68.235296%,90.196079%,0%);fill-opacity:1;" d="M 156.351562 18.691406 L 175.042969 12.765625 L 180.972656 31.457031 L 162.28125 37.386719 Z M 156.351562 18.691406 "/>
<path style=" stroke:none;fill-rule:nonzero;fill:rgb(68.235296%,90.196079%,0%);fill-opacity:1;" d="M 131.730469 5.929688 L 150.421875 0 L 156.351562 18.691406 L 137.660156 24.621094 Z M 131.730469 5.929688 "/>
<path style=" stroke:none;fill-rule:nonzero;fill:rgb(68.235296%,90.196079%,0%);fill-opacity:1;" d="M 113.042969 11.875 L 131.738281 5.945312 L 137.664062 24.636719 L 118.972656 30.566406 Z M 113.042969 11.875 "/>
<path style=" stroke:none;fill-rule:nonzero;fill:rgb(68.235296%,90.196079%,0%);fill-opacity:1;" d="M 100.179688 36.527344 L 118.871094 30.597656 L 124.800781 49.289062 L 106.109375 55.21875 Z M 100.179688 36.527344 "/>
<path style=" stroke:none;fill-rule:nonzero;fill:rgb(68.235296%,90.196079%,0%);fill-opacity:1;" d="M 149.371094 62.050781 L 168.0625 56.125 L 173.992188 74.816406 L 155.300781 80.742188 Z M 149.371094 62.050781 "/>
<path style=" stroke:none;fill-rule:nonzero;fill:rgb(68.235296%,90.196079%,0%);fill-opacity:1;" d="M 130.679688 67.976562 L 149.371094 62.050781 L 155.300781 80.742188 L 136.609375 86.671875 Z M 130.679688 67.976562 "/>
<path style=" stroke:none;fill-rule:nonzero;fill:rgb(68.235296%,90.196079%,0%);fill-opacity:1;" d="M 111.980469 73.910156 L 130.671875 67.980469 L 136.597656 86.671875 L 117.90625 92.601562 Z M 111.980469 73.910156 "/>
<path style=" stroke:none;fill-rule:nonzero;fill:rgb(68.235296%,90.196079%,0%);fill-opacity:1;" d="M 93.292969 79.855469 L 111.984375 73.925781 L 117.910156 92.617188 L 99.21875 98.546875 Z M 93.292969 79.855469 "/>
<path style=" stroke:none;fill-rule:nonzero;fill:rgb(68.235296%,90.196079%,0%);fill-opacity:1;" d="M 68.667969 67.09375 L 87.359375 61.164062 L 93.285156 79.855469 L 74.59375 85.785156 Z M 68.667969 67.09375 "/>
<path style=" stroke:none;fill-rule:nonzero;fill:rgb(68.235296%,90.196079%,0%);fill-opacity:1;" d="M 44.039062 54.3125 L 62.730469 48.382812 L 68.65625 67.078125 L 49.964844 73.003906 Z M 44.039062 54.3125 "/>
<path style=" stroke:none;fill-rule:nonzero;fill:rgb(68.235296%,90.196079%,0%);fill-opacity:1;" d="M 19.417969 41.546875 L 38.109375 35.621094 L 44.035156 54.3125 L 25.34375 60.242188 Z M 19.417969 41.546875 "/>
<path style=" stroke:none;fill-rule:nonzero;fill:rgb(68.235296%,90.196079%,0%);fill-opacity:1;" d="M 124.699219 49.304688 L 143.390625 43.375 L 149.320312 62.066406 L 130.628906 67.996094 Z M 124.699219 49.304688 "/>
<path style=" stroke:none;fill-rule:nonzero;fill:rgb(38.82353%,67.058825%,0%);fill-opacity:1;" d="M 254.679688 69.796875 L 273.371094 63.871094 L 279.300781 82.5625 L 260.605469 88.488281 Z M 254.679688 69.796875 "/>
<path style=" stroke:none;fill-rule:nonzero;fill:rgb(38.82353%,67.058825%,0%);fill-opacity:1;" d="M 217.304688 81.652344 L 235.996094 75.722656 L 241.925781 94.414062 L 223.234375 100.34375 Z M 217.304688 81.652344 "/>
<path style=" stroke:none;fill-rule:nonzero;fill:rgb(38.82353%,67.058825%,0%);fill-opacity:1;" d="M 179.878906 93.519531 L 198.570312 87.59375 L 204.5 106.285156 L 185.804688 112.210938 Z M 179.878906 93.519531 "/>
</g>
</svg>
