<?xml version="1.0" encoding="UTF-8"?>
<svg xmlns="http://www.w3.org/2000/svg" xmlns:xlink="http://www.w3.org/1999/xlink" width="296.25pt" height="342pt" viewBox="0 0 296.25 342" version="1.1">
<g id="surface1">
<path style=" stroke:none;fill-rule:nonzero;fill:rgb(49.803922%,31.764707%,100%);fill-opacity:1;" d="M 233.226562 240.476562 L 217.121094 230.851562 L 229.855469 209.546875 L 296 98.878906 L 278.855469 88.632812 L 289.808594 70.304688 L 273.238281 60.402344 L 283.878906 42.605469 L 267.296875 32.695312 L 277.988281 14.808594 L 261.503906 4.953125 L 248.375 0.496094 L 250.8125 22.839844 L 234.121094 12.867188 L 220.992188 8.40625 L 223.484375 30.664062 L 206.804688 20.695312 L 193.675781 16.234375 L 195.851562 39.019531 L 179.230469 29.085938 L 166.101562 24.628906 L 113.070312 139.78125 L 100.351562 161.058594 L 83.703125 151.109375 L 70.574219 146.648438 L 72.753906 169.429688 L 56.433594 159.675781 L 43.304688 155.214844 L 15.726562 227.785156 L 16.320312 237.421875 L 29.449219 241.882812 L 41.113281 222.367188 L 42.601562 219.871094 L 45.835938 225.191406 L 58.964844 229.652344 L 69.542969 212.101562 L 85.859375 221.855469 L 75.351562 239.445312 L 92.308594 249.582031 L 79.152344 271.589844 L 116.527344 297.320312 L 129.65625 301.777344 L 142.167969 280.847656 L 142.8125 279.765625 L 146.679688 285.464844 L 159.808594 289.925781 L 160.433594 288.886719 L 170.382812 272.304688 L 186.6875 282.082031 L 176.195312 299.71875 L 192.125 309.242188 L 182.996094 337.046875 L 196.125 341.503906 L 239.429688 269.050781 L 222.277344 258.796875 Z M 233.226562 240.476562 "/>
<path style=" stroke:none;fill-rule:nonzero;fill:rgb(58.823532%,47.843137%,99.607843%);fill-opacity:1;" d="M 220.097656 236.019531 L 203.992188 226.394531 L 216.726562 205.085938 L 282.871094 94.421875 L 265.726562 84.171875 L 276.679688 65.847656 L 260.109375 55.941406 L 270.75 38.144531 L 254.167969 28.234375 L 264.859375 10.347656 L 248.375 0.496094 L 237.683594 18.382812 L 220.992188 8.40625 L 210.355469 26.203125 L 193.675781 16.234375 L 182.722656 34.5625 L 166.101562 24.628906 L 99.941406 135.320312 L 87.222656 156.601562 L 70.574219 146.648438 L 59.625 164.96875 L 43.304688 155.214844 L 0 227.671875 L 16.320312 237.421875 L 29.472656 215.414062 L 45.835938 225.191406 L 56.414062 207.640625 L 72.730469 217.394531 L 62.222656 234.984375 L 79.179688 245.121094 L 66.023438 267.132812 L 116.527344 297.320312 L 129.683594 275.308594 L 146.679688 285.464844 L 147.304688 284.429688 L 157.253906 267.84375 L 173.558594 277.625 L 163.066406 295.257812 L 178.996094 304.78125 L 165.953125 326.859375 L 182.996094 337.046875 L 226.300781 264.589844 L 209.148438 254.339844 Z M 220.097656 236.019531 "/>
<path style=" stroke:none;fill-rule:nonzero;fill:rgb(100%,100%,100%);fill-opacity:1;" d="M 193.28125 91.699219 L 210.886719 102.273438 L 199.609375 121.050781 L 182.003906 110.476562 Z M 193.28125 91.699219 "/>
<path style=" stroke:none;fill-rule:nonzero;fill:rgb(100%,100%,100%);fill-opacity:1;" d="M 164.394531 99.902344 L 182.003906 110.476562 L 170.726562 129.253906 L 153.117188 118.679688 Z M 164.394531 99.902344 "/>
<path style=" stroke:none;fill-rule:nonzero;fill:rgb(100%,100%,100%);fill-opacity:1;" d="M 199.609375 121.050781 L 217.21875 131.625 L 205.941406 150.402344 L 188.332031 139.828125 Z M 199.609375 121.050781 "/>
<path style=" stroke:none;fill-rule:nonzero;fill:rgb(100%,100%,100%);fill-opacity:1;" d="M 170.722656 129.253906 L 188.332031 139.828125 L 177.054688 158.605469 L 159.445312 148.03125 Z M 170.722656 129.253906 "/>
<path style=" stroke:none;fill-rule:nonzero;fill:rgb(69.803923%,58.823532%,99.607843%);fill-opacity:1;" d="M 92.960938 184.609375 L 76.242188 174.949219 L 87.191406 156.628906 L 103.839844 166.582031 Z M 92.960938 184.609375 "/>
<path style=" stroke:none;fill-rule:nonzero;fill:rgb(69.803923%,58.823532%,99.607843%);fill-opacity:1;" d="M 272.0625 112.507812 L 254.78125 102.492188 L 265.730469 84.171875 L 282.871094 94.4375 Z M 272.0625 112.507812 "/>
</g>
</svg>
