<?xml version="1.0" encoding="UTF-8"?>
<svg xmlns="http://www.w3.org/2000/svg" xmlns:xlink="http://www.w3.org/1999/xlink" width="339.75pt" height="342pt" viewBox="0 0 339.75 342" version="1.1">
<g id="surface8811">
<path style=" stroke:none;fill-rule:nonzero;fill:rgb(27.058825%,29.411766%,87.058824%);fill-opacity:1;" d="M 271.019531 340.488281 L 272.574219 319.101562 L 292.949219 317.542969 L 294.546875 296.5625 L 315.546875 294.847656 L 317.238281 272.625 L 338.058594 270.671875 L 339 250.828125 L 262.605469 174.183594 L 172.988281 264.597656 Z M 271.019531 340.488281 "/>
<path style=" stroke:none;fill-rule:nonzero;fill:rgb(36.862746%,47.450981%,100%);fill-opacity:1;" d="M 172.988281 264.597656 L 250.332031 341.578125 L 271.019531 340.488281 L 251.914062 321.433594 L 224.289062 250.132812 Z M 172.988281 264.597656 "/>
<path style=" stroke:none;fill-rule:nonzero;fill:rgb(27.058825%,29.411766%,87.058824%);fill-opacity:1;" d="M 94.082031 82.578125 L 147.113281 58.007812 L 89.824219 0.421875 L 45.285156 45.613281 Z M 94.082031 82.578125 "/>
<path style=" stroke:none;fill-rule:nonzero;fill:rgb(36.862746%,47.450981%,100%);fill-opacity:1;" d="M 45.285156 45.613281 L 0 91.554688 L 19.203125 110.613281 L 77.652344 167.816406 L 98.398438 165.90625 L 94.082031 82.578125 Z M 45.285156 45.613281 "/>
<path style=" stroke:none;fill-rule:nonzero;fill:rgb(27.058825%,29.411766%,87.058824%);fill-opacity:1;" d="M 120.957031 141.777344 L 121.953125 121.628906 L 143.277344 119.664062 L 144.890625 98.832031 L 165.378906 96.910156 L 166.71875 77.144531 L 147.113281 58.007812 L 0 91.554688 L 48.316406 87.101562 L 79.136719 147.671875 L 98.398438 165.90625 Z M 120.957031 141.777344 "/>
<path style=" stroke:none;fill-rule:nonzero;fill:rgb(27.058825%,63.137257%,99.607843%);fill-opacity:1;" d="M 265.765625 130.699219 L 328.363281 125.089844 L 331.023438 83.667969 L 311.820312 64.605469 L 314.253906 42.644531 L 275.347656 4.378906 L 232.492188 29.417969 L 227.726562 92.59375 Z M 265.765625 130.699219 "/>
<path style=" stroke:none;fill-rule:nonzero;fill:rgb(27.058825%,63.137257%,99.607843%);fill-opacity:1;" d="M 129.976562 289.445312 L 151.171875 287.601562 L 152.835938 265.746094 L 172.988281 264.597656 L 174.894531 242.503906 L 216.769531 239.808594 L 229.871094 221.53125 L 219.753906 200.699219 L 219.992188 197.605469 L 241.507812 195.71875 L 242.402344 175.5 L 242.460938 174.199219 L 262.5625 172.761719 L 265.765625 130.699219 L 227.726562 92.59375 L 185.925781 96.203125 L 184.242188 117.378906 L 163.957031 119.035156 L 162.40625 139.964844 L 120.25 143.785156 L 117.03125 186.085938 L 96.316406 188.003906 L 94.695312 209.316406 L 73.597656 211.265625 L 72.046875 231.621094 Z M 129.976562 289.445312 "/>
<path style=" stroke:none;fill-rule:nonzero;fill:rgb(27.058825%,63.137257%,99.607843%);fill-opacity:1;" d="M 72.046875 231.621094 L 51.742188 233.277344 L 50.085938 255.019531 L 63.453125 337.132812 L 105.800781 333.675781 L 107.410156 312.523438 L 128.34375 310.8125 L 129.976562 289.445312 Z M 72.046875 231.621094 "/>
<path style=" stroke:none;fill-rule:nonzero;fill:rgb(47.843137%,73.333335%,99.607843%);fill-opacity:1;" d="M 50.085938 255.019531 L 7.03125 279.40625 L 63.453125 337.132812 Z M 50.085938 255.019531 "/>
<path style=" stroke:none;fill-rule:nonzero;fill:rgb(49.803922%,31.764707%,100%);fill-opacity:1;" d="M 336.464844 19.503906 L 317.359375 0.445312 L 296.632812 2.789062 L 295.050781 23.757812 L 314.15625 42.644531 L 334.945312 40.859375 Z M 336.464844 19.503906 "/>
<path style=" stroke:none;fill-rule:nonzero;fill:rgb(47.058824%,56.078434%,100%);fill-opacity:1;" d="M 271.019531 340.488281 L 250.332031 341.578125 L 231.234375 322.570312 L 240.027344 315.296875 L 251.914062 321.433594 Z M 271.019531 340.488281 "/>
<path style=" stroke:none;fill-rule:nonzero;fill:rgb(34.901962%,37.64706%,100%);fill-opacity:1;" d="M 69.632812 1.757812 L 68.023438 22.875 L 47.167969 24.648438 L 45.550781 45.878906 L 24.734375 47.664062 L 23.132812 68.722656 L 2.015625 70.546875 L 0 91.554688 L 21.546875 89.535156 L 19.953125 110.5 L 40.726562 108.804688 L 39.191406 129.460938 L 60.035156 127.863281 L 58.445312 148.757812 L 79.136719 147.671875 L 80.6875 126.285156 L 101.0625 124.722656 L 102.660156 103.746094 L 123.660156 102.03125 L 125.351562 79.804688 L 146.171875 77.851562 L 147.113281 58.007812 L 126.875 59.757812 L 128.195312 38.972656 L 107.46875 40.566406 L 108.71875 19.414062 L 88.320312 21.148438 L 89.824219 0.421875 Z M 69.632812 1.757812 "/>
<path style=" stroke:none;fill-rule:nonzero;fill:rgb(36.862746%,47.450981%,100%);fill-opacity:1;" d="M 68.023438 22.917969 L 66.410156 44.089844 L 45.550781 45.878906 L 43.953125 66.921875 L 23.132812 68.722656 L 21.546875 89.535156 L 42.378906 87.582031 L 40.726562 108.804688 L 61.617188 107.097656 L 60.035156 127.863281 L 80.6875 126.285156 L 82.203125 105.414062 L 102.660156 103.746094 L 104.332031 81.773438 L 125.351562 79.804688 L 127.097656 59.738281 L 105.871094 61.570312 L 107.46875 40.566406 L 86.78125 42.339844 L 88.320312 21.148438 Z M 68.023438 22.917969 "/>
<path style=" stroke:none;fill-rule:nonzero;fill:rgb(47.058824%,56.078434%,100%);fill-opacity:1;" d="M 42.378906 87.582031 L 21.546875 89.535156 L 23.132812 68.722656 L 43.953125 66.921875 Z M 42.378906 87.582031 "/>
<path style=" stroke:none;fill-rule:nonzero;fill:rgb(27.058825%,29.411766%,87.058824%);fill-opacity:1;" d="M 63.269531 85.878906 L 42.375 87.585938 L 43.953125 66.921875 L 64.824219 64.964844 Z M 63.269531 85.878906 "/>
<path style=" stroke:none;fill-rule:nonzero;fill:rgb(34.901962%,37.64706%,100%);fill-opacity:1;" d="M 242.414062 175.515625 L 240.804688 196.632812 L 219.949219 198.40625 L 218.332031 219.636719 L 197.515625 221.425781 L 195.914062 242.480469 L 174.796875 243.597656 L 172.78125 264.609375 L 194.328125 263.296875 L 192.734375 284.257812 L 213.507812 282.5625 L 211.972656 303.21875 L 232.816406 301.625 L 231.226562 322.519531 L 251.917969 321.429688 L 253.46875 300.042969 L 273.84375 298.484375 L 275.441406 277.503906 L 296.441406 275.789062 L 298.132812 253.5625 L 318.953125 251.613281 L 319.894531 231.769531 L 299.65625 233.515625 L 301.253906 212.523438 L 280.25 214.324219 L 281.859375 193.144531 L 261.101562 194.910156 L 262.605469 174.183594 Z M 242.414062 175.515625 "/>
<path style=" stroke:none;fill-rule:nonzero;fill:rgb(36.862746%,47.450981%,100%);fill-opacity:1;" d="M 240.804688 196.679688 L 239.191406 217.847656 L 218.332031 219.636719 L 216.730469 240.683594 L 195.914062 242.480469 L 194.328125 263.296875 L 215.160156 261.34375 L 213.507812 282.5625 L 234.398438 280.855469 L 232.816406 301.625 L 253.46875 300.042969 L 254.984375 279.175781 L 275.441406 277.503906 L 277.113281 255.535156 L 298.132812 253.5625 L 299.878906 233.496094 L 278.652344 235.332031 L 280.25 214.324219 L 259.5625 216.101562 L 261.101562 194.910156 Z M 240.804688 196.679688 "/>
<path style=" stroke:none;fill-rule:nonzero;fill:rgb(27.058825%,29.411766%,87.058824%);fill-opacity:1;" d="M 235.972656 259.484375 L 215.140625 261.4375 L 216.726562 240.625 L 237.546875 238.824219 Z M 235.972656 259.484375 "/>
<path style=" stroke:none;fill-rule:nonzero;fill:rgb(56.862748%,78.039217%,99.607843%);fill-opacity:1;" d="M 208.523438 73.53125 L 166.71875 77.144531 L 165.035156 98.320312 L 144.753906 99.976562 L 143.199219 120.90625 L 101.050781 124.683594 L 97.828125 167.027344 L 77.109375 168.945312 L 75.488281 190.257812 L 54.390625 192.203125 L 52.84375 212.5625 L 32.535156 214.21875 L 30.882812 235.960938 L 10.183594 237.800781 L 7.03125 279.40625 L 27.695312 277.824219 L 26.121094 298.535156 L 46.429688 296.875 L 44.820312 318.027344 L 86.597656 314.617188 L 88.207031 293.464844 L 109.140625 291.753906 L 110.769531 270.386719 L 131.96875 268.542969 L 133.5625 247.609375 L 153.761719 245.804688 L 155.390625 225.109375 L 197.515625 221.425781 L 200.519531 178.710938 L 220.988281 177.152344 L 222.636719 155.472656 L 243.371094 153.53125 L 246.558594 111.640625 Z M 208.523438 73.53125 "/>
<path style=" stroke:none;fill-rule:nonzero;fill:rgb(56.862748%,78.039217%,99.607843%);fill-opacity:1;" d="M 246.558594 111.640625 L 309.160156 106.027344 L 311.820312 64.605469 L 291.796875 66.335938 L 295.050781 23.585938 L 273.746094 25.414062 L 275.347656 4.378906 L 213.289062 10.359375 L 208.523438 73.53125 L 205.339844 115.335938 Z M 246.558594 111.640625 "/>
<path style=" stroke:none;fill-rule:nonzero;fill:rgb(35.686275%,67.450982%,99.607843%);fill-opacity:1;" d="M 225.832031 113.5 L 205.339844 115.335938 L 206.894531 94.902344 L 227.375 93.230469 Z M 225.832031 113.5 "/>
<path style=" stroke:none;fill-rule:nonzero;fill:rgb(35.686275%,67.450982%,99.607843%);fill-opacity:1;" d="M 206.894531 94.902344 L 186.371094 96.578125 L 187.761719 75.328125 L 208.523438 73.53125 Z M 206.894531 94.902344 "/>
<path style=" stroke:none;fill-rule:nonzero;fill:rgb(35.686275%,67.450982%,99.607843%);fill-opacity:1;" d="M 244.996094 131.945312 L 224.289062 133.804688 L 225.832031 113.5 L 246.558594 111.640625 Z M 244.996094 131.945312 "/>
<path style=" stroke:none;fill-rule:nonzero;fill:rgb(89.019608%,92.941177%,97.254902%);fill-opacity:1;" d="M 315.839844 21.800781 L 295.050781 23.585938 L 296.632812 2.789062 L 317.359375 0.445312 Z M 315.839844 21.800781 "/>
<path style=" stroke:none;fill-rule:nonzero;fill:rgb(35.686275%,67.450982%,99.607843%);fill-opacity:1;" d="M 52.84375 212.5625 L 32.535156 214.21875 L 30.882812 235.960938 L 10.183594 237.800781 L 7.03125 279.40625 L 27.695312 277.824219 L 26.121094 298.535156 L 46.429688 296.875 L 44.820312 318.027344 L 86.597656 314.617188 L 88.207031 293.464844 L 109.140625 291.753906 L 110.769531 270.386719 L 90.527344 271.871094 L 91.566406 251.214844 L 71.054688 252.996094 L 72.0625 232.390625 L 51.675781 234.183594 Z M 52.84375 212.5625 "/>
<path style=" stroke:none;fill-rule:nonzero;fill:rgb(27.058825%,63.137257%,99.607843%);fill-opacity:1;" d="M 334.945312 40.859375 L 315.984375 21.957031 L 317.359375 0.445312 L 336.464844 19.503906 Z M 334.945312 40.859375 "/>
<path style=" stroke:none;fill-rule:nonzero;fill:rgb(56.862748%,78.039217%,99.607843%);fill-opacity:1;" d="M 105.800781 333.675781 L 63.453125 337.132812 L 44.820312 318.070312 L 86.78125 314.816406 Z M 105.800781 333.675781 "/>
<path style=" stroke:none;fill-rule:nonzero;fill:rgb(35.686275%,67.450982%,99.607843%);fill-opacity:1;" d="M 328.363281 125.089844 L 265.765625 130.699219 L 246.558594 111.640625 L 309.160156 106.027344 Z M 328.363281 125.089844 "/>
<path style=" stroke:none;fill-rule:nonzero;fill:rgb(35.686275%,67.450982%,99.607843%);fill-opacity:1;" d="M 334.945312 40.859375 L 314.253906 42.644531 L 295.050781 23.757812 L 315.839844 21.800781 Z M 334.945312 40.859375 "/>
<path style=" stroke:none;fill-rule:nonzero;fill:rgb(36.862746%,47.450981%,100%);fill-opacity:1;" d="M 165.378906 96.910156 L 146.171875 77.851562 L 147.113281 58.007812 L 166.71875 77.144531 Z M 165.378906 96.910156 "/>
<path style=" stroke:none;fill-rule:nonzero;fill:rgb(36.862746%,47.450981%,100%);fill-opacity:1;" d="M 143.277344 119.664062 L 123.660156 102.03125 L 125.351562 79.804688 L 144.890625 98.832031 Z M 143.277344 119.664062 "/>
<path style=" stroke:none;fill-rule:nonzero;fill:rgb(36.862746%,47.450981%,100%);fill-opacity:1;" d="M 121.953125 122.808594 L 101.0625 124.722656 L 102.660156 103.746094 L 121.953125 121.628906 Z M 121.953125 122.808594 "/>
</g>
</svg>
