<?xml version="1.0" encoding="UTF-8"?>
<svg xmlns="http://www.w3.org/2000/svg" xmlns:xlink="http://www.w3.org/1999/xlink" width="342pt" height="342pt" viewBox="0 0 342 342" version="1.1">
<g id="surface197">
<path style=" stroke:none;fill-rule:nonzero;fill:rgb(99.215686%,75.686276%,0%);fill-opacity:1;" d="M 244.445312 293.046875 L 167.847656 305.613281 L 97.695312 293.046875 L 48.867188 244.222656 L 22.496094 154.371094 L 48.867188 97.671875 L 97.695312 48.847656 L 173.085938 36.515625 L 244.445312 48.847656 L 293.132812 97.652344 L 307.871094 173.078125 L 293.269531 244.222656 Z M 244.445312 293.046875 "/>
<path style=" stroke:none;fill-rule:nonzero;fill:rgb(99.215686%,75.686276%,0%);fill-opacity:1;" d="M 0.0429688 97.671875 L 48.867188 97.671875 L 48.867188 146.5 L 0.0429688 146.5 Z M 0.0429688 97.671875 "/>
<path style=" stroke:none;fill-rule:nonzero;fill:rgb(99.215686%,75.686276%,0%);fill-opacity:1;" d="M 0.0429688 146.496094 L 48.867188 146.496094 L 48.867188 195.324219 L 0.0429688 195.324219 Z M 0.0429688 146.496094 "/>
<path style=" stroke:none;fill-rule:nonzero;fill:rgb(99.215686%,75.686276%,0%);fill-opacity:1;" d="M 0.0429688 195.394531 L 48.867188 195.394531 L 48.867188 244.222656 L 0.0429688 244.222656 Z M 0.0429688 195.394531 "/>
<path style=" stroke:none;fill-rule:nonzero;fill:rgb(99.215686%,75.686276%,0%);fill-opacity:1;" d="M 293.132812 97.652344 L 341.957031 97.652344 L 341.957031 146.476562 L 293.132812 146.476562 Z M 293.132812 97.652344 "/>
<path style=" stroke:none;fill-rule:nonzero;fill:rgb(99.215686%,75.686276%,0%);fill-opacity:1;" d="M 293.132812 146.496094 L 341.957031 146.496094 L 341.957031 195.324219 L 293.132812 195.324219 Z M 293.132812 146.496094 "/>
<path style=" stroke:none;fill-rule:nonzero;fill:rgb(99.215686%,75.686276%,0%);fill-opacity:1;" d="M 292.996094 195.402344 L 341.820312 195.402344 L 341.820312 244.230469 L 292.996094 244.230469 Z M 292.996094 195.402344 "/>
<path style=" stroke:none;fill-rule:nonzero;fill:rgb(99.215686%,75.686276%,0%);fill-opacity:1;" d="M 97.96875 0.0234375 L 146.792969 0.0234375 L 146.792969 48.847656 L 97.96875 48.847656 Z M 97.96875 0.0234375 "/>
<path style=" stroke:none;fill-rule:nonzero;fill:rgb(99.215686%,75.686276%,0%);fill-opacity:1;" d="M 195.34375 0 L 244.167969 0 L 244.167969 48.824219 L 195.34375 48.824219 Z M 195.34375 0 "/>
<path style=" stroke:none;fill-rule:nonzero;fill:rgb(99.215686%,75.686276%,0%);fill-opacity:1;" d="M 146.792969 0.0234375 L 195.621094 0.0234375 L 195.621094 48.847656 L 146.792969 48.847656 Z M 146.792969 0.0234375 "/>
<path style=" stroke:none;fill-rule:nonzero;fill:rgb(99.215686%,75.686276%,0%);fill-opacity:1;" d="M 98.242188 293.175781 L 147.070312 293.175781 L 147.070312 342 L 98.242188 342 Z M 98.242188 293.175781 "/>
<path style=" stroke:none;fill-rule:nonzero;fill:rgb(99.215686%,75.686276%,0%);fill-opacity:1;" d="M 195.617188 293.152344 L 244.445312 293.152344 L 244.445312 341.976562 L 195.617188 341.976562 Z M 195.617188 293.152344 "/>
<path style=" stroke:none;fill-rule:nonzero;fill:rgb(99.215686%,75.686276%,0%);fill-opacity:1;" d="M 147.070312 293.046875 L 195.894531 293.046875 L 195.894531 341.871094 L 147.070312 341.871094 Z M 147.070312 293.046875 "/>
<path style=" stroke:none;fill-rule:nonzero;fill:rgb(99.215686%,75.686276%,0%);fill-opacity:1;" d="M 49.144531 48.824219 L 97.96875 48.824219 L 97.96875 97.652344 L 49.144531 97.652344 Z M 49.144531 48.824219 "/>
<path style=" stroke:none;fill-rule:nonzero;fill:rgb(99.215686%,75.686276%,0%);fill-opacity:1;" d="M 244.308594 48.824219 L 293.132812 48.824219 L 293.132812 97.652344 L 244.308594 97.652344 Z M 244.308594 48.824219 "/>
<path style=" stroke:none;fill-rule:nonzero;fill:rgb(99.215686%,75.686276%,0%);fill-opacity:1;" d="M 48.867188 244.222656 L 97.695312 244.222656 L 97.695312 293.046875 L 48.867188 293.046875 Z M 48.867188 244.222656 "/>
<path style=" stroke:none;fill-rule:nonzero;fill:rgb(99.215686%,75.686276%,0%);fill-opacity:1;" d="M 244.445312 244.222656 L 293.269531 244.222656 L 293.269531 293.046875 L 244.445312 293.046875 Z M 244.445312 244.222656 "/>
<path style=" stroke:none;fill-rule:nonzero;fill:rgb(32.941177%,32.941177%,32.941177%);fill-opacity:1;" d="M 98.242188 120.558594 L 147.070312 120.558594 L 147.070312 169.382812 L 98.242188 169.382812 Z M 98.242188 120.558594 "/>
<path style=" stroke:none;fill-rule:nonzero;fill:rgb(32.941177%,32.941177%,32.941177%);fill-opacity:1;" d="M 195.617188 120.585938 L 244.445312 120.585938 L 244.445312 169.410156 L 195.617188 169.410156 Z M 195.617188 120.585938 "/>
<path style=" stroke:none;fill-rule:nonzero;fill:rgb(100%,100%,100%);fill-opacity:1;" d="M 48.867188 169.457031 L 97.695312 169.457031 L 97.695312 218.28125 L 48.867188 218.28125 Z M 48.867188 169.457031 "/>
<path style=" stroke:none;fill-rule:nonzero;fill:rgb(100%,100%,100%);fill-opacity:1;" d="M 97.96875 218.28125 L 146.792969 218.28125 L 146.792969 267.109375 L 97.96875 267.109375 Z M 97.96875 218.28125 "/>
<path style=" stroke:none;fill-rule:nonzero;fill:rgb(100%,100%,100%);fill-opacity:1;" d="M 244.308594 169.464844 L 293.132812 169.464844 L 293.132812 218.292969 L 244.308594 218.292969 Z M 244.308594 169.464844 "/>
<path style=" stroke:none;fill-rule:nonzero;fill:rgb(100%,100%,100%);fill-opacity:1;" d="M 195.34375 218.28125 L 244.167969 218.28125 L 244.167969 267.109375 L 195.34375 267.109375 Z M 195.34375 218.28125 "/>
<path style=" stroke:none;fill-rule:nonzero;fill:rgb(100%,100%,100%);fill-opacity:1;" d="M 146.65625 218.28125 L 195.480469 218.28125 L 195.480469 267.109375 L 146.65625 267.109375 Z M 146.65625 218.28125 "/>
</g>
</svg>
