<?xml version="1.0" encoding="UTF-8"?>
<svg xmlns="http://www.w3.org/2000/svg" xmlns:xlink="http://www.w3.org/1999/xlink" width="342pt" height="249.75pt" viewBox="0 0 342 249.75" version="1.1">
<g id="surface339">
<path style=" stroke:none;fill-rule:nonzero;fill:rgb(43.921569%,76.078433%,0%);fill-opacity:1;" d="M 318.921875 70.300781 L 285.027344 58.570312 L 262.253906 69.734375 L 251.171875 46.921875 L 228.359375 58.003906 L 228.371094 58.023438 L 194.425781 46.195312 L 160.535156 34.464844 L 126.675781 22.8125 L 115.59375 0 L 92.785156 11.082031 L 103.867188 33.894531 L 103.871094 33.894531 L 103.867188 33.898438 L 81.054688 44.980469 L 92.144531 67.804688 L 69.332031 78.886719 L 80.402344 101.671875 L 34.765625 123.757812 L 23.683594 100.945312 L 0.871094 112.027344 L 45.203125 203.277344 L 74.453125 217.261719 L 330.042969 93.195312 Z M 318.921875 70.300781 "/>
<path style=" stroke:none;fill-rule:nonzero;fill:rgb(68.235296%,90.196079%,0%);fill-opacity:1;" d="M 126.640625 22.734375 L 149.453125 11.652344 L 160.535156 34.464844 L 137.722656 45.546875 Z M 126.640625 22.734375 "/>
<path style=" stroke:none;fill-rule:nonzero;fill:rgb(68.235296%,90.196079%,0%);fill-opacity:1;" d="M 160.53125 34.464844 L 183.34375 23.382812 L 194.425781 46.195312 L 171.613281 57.277344 Z M 160.53125 34.464844 "/>
<path style=" stroke:none;fill-rule:nonzero;fill:rgb(68.235296%,90.196079%,0%);fill-opacity:1;" d="M 194.476562 46.292969 L 217.289062 35.210938 L 228.371094 58.023438 L 205.558594 69.105469 Z M 194.476562 46.292969 "/>
<path style=" stroke:none;fill-rule:nonzero;fill:rgb(89.019608%,92.941177%,97.254902%);fill-opacity:1;" d="M 137.722656 45.546875 L 160.53125 34.464844 L 171.617188 57.277344 L 148.804688 68.359375 Z M 137.722656 45.546875 "/>
<path style=" stroke:none;fill-rule:nonzero;fill:rgb(68.235296%,90.196079%,0%);fill-opacity:1;" d="M 285.027344 58.574219 L 307.839844 47.492188 L 318.921875 70.300781 L 296.109375 81.386719 Z M 285.027344 58.574219 "/>
<path style=" stroke:none;fill-rule:nonzero;fill:rgb(68.235296%,90.196079%,0%);fill-opacity:1;" d="M 262.214844 69.652344 L 285.027344 58.570312 L 296.109375 81.382812 L 273.296875 92.464844 Z M 262.214844 69.652344 "/>
<path style=" stroke:none;fill-rule:nonzero;fill:rgb(68.235296%,90.196079%,0%);fill-opacity:1;" d="M 67.992188 192.203125 L 113.628906 170.035156 L 124.710938 192.847656 L 79.074219 215.015625 Z M 67.992188 192.203125 "/>
<path style=" stroke:none;fill-rule:nonzero;fill:rgb(89.019608%,92.941177%,97.254902%);fill-opacity:1;" d="M 68.015625 192.195312 L 45.203125 203.277344 L 56.285156 226.089844 L 74.929688 226.089844 L 79.097656 215.007812 Z M 68.015625 192.195312 "/>
<path style=" stroke:none;fill-rule:nonzero;fill:rgb(89.019608%,92.941177%,97.254902%);fill-opacity:1;" d="M 171.664062 57.375 L 194.476562 46.292969 L 205.558594 69.105469 L 182.746094 80.1875 Z M 171.664062 57.375 "/>
<path style=" stroke:none;fill-rule:nonzero;fill:rgb(89.019608%,92.941177%,97.254902%);fill-opacity:1;" d="M 205.507812 69.007812 L 228.320312 57.925781 L 239.402344 80.734375 L 216.589844 91.820312 Z M 205.507812 69.007812 "/>
<path style=" stroke:none;fill-rule:nonzero;fill:rgb(89.019608%,92.941177%,97.254902%);fill-opacity:1;" d="M 341.128906 116.007812 L 330.042969 93.195312 L 147.449219 181.902344 L 136.425781 158.960938 L 113.613281 170.042969 L 124.699219 192.851562 L 124.90625 192.863281 L 56.304688 226.1875 L 67.386719 249 Z M 341.128906 116.007812 "/>
</g>
</svg>
